<?xml version="1.0" encoding="utf-8"?>
<!-- Generator: Adobe Illustrator 19.2.0, SVG Export Plug-In . SVG Version: 6.00 Build 0)  -->
<svg version="1.1" id="Capa_1" xmlns="http://www.w3.org/2000/svg" xmlns:xlink="http://www.w3.org/1999/xlink" x="0px" y="0px"
	 viewBox="0 0 512 512" style="enable-background:new 0 0 512 512;" xml:space="preserve">
<style type="text/css">
	.st0{fill:#FFAC21;}
</style>
<g>
	<g>
		<g>
			<path class="st0" d="M53.3,448c-5.9,0-10.7,4.8-10.7,10.7s4.8,10.7,10.7,10.7S64,464.6,64,458.7S59.2,448,53.3,448z"/>
			<path class="st0" d="M330.7,448h-85.3c-5.9,0-10.7,4.8-10.7,10.7s4.8,10.7,10.7,10.7h85.3c5.9,0,10.7-4.8,10.7-10.7
				S336.6,448,330.7,448z"/>
			<path d="M402,128.5C387.2,54.6,321.4,0,245.3,0c-88.2,0-160,71.7-160,160c0,3.6,0.1,7.3,0.5,11.2C37.7,176.3,0,217.2,0,266.7
				c0,8.6,1.4,17.2,4.3,27.1c1.7,5.7,7.6,8.9,13.2,7.2c5.7-1.7,8.9-7.6,7.2-13.2c-2.3-7.9-3.4-14.6-3.4-21.1
				c0-41.2,33.5-74.7,74-74.7c3.5,0.5,8.1-0.7,10.5-3.5c2-2.3,2.9-5.4,2.5-8.5c-1.1-7.7-1.6-14-1.6-20
				c0-76.4,62.2-138.7,138.7-138.7c68.5,0,127.4,51.2,137.1,119c0.7,5.4,7,9.1,12.2,9c52.9,0,96,43.1,96,96
				c0,45.5-32.4,85.1-77,94.1c-5.8,1.2-9.5,6.8-8.4,12.6c1,5.1,5.5,8.6,10.5,8.6c0.7,0,1.4-0.1,2.1-0.2c54.6-11,94.1-59.3,94.1-115
				C512,183.7,464.2,132.9,402,128.5z"/>
			<path class="st0" d="M53.3,362.7c-5.9,0-10.7,4.8-10.7,10.7S47.4,384,53.3,384S64,379.2,64,373.3C64,367.4,59.2,362.7,53.3,362.7
				z"/>
			<path class="st0" d="M352,320H32c-17.6,0-32,14.4-32,32v42.7c0,8.2,3.2,15.7,8.3,21.3C3.2,421.7,0,429.1,0,437.3V480
				c0,17.7,14.4,32,32,32h320c17.6,0,32-14.4,32-32v-42.7c0-8.2-3.2-15.7-8.3-21.3c5.1-5.7,8.3-13.1,8.3-21.3V352
				C384,334.4,369.6,320,352,320z M362.7,480c0,5.9-4.8,10.7-10.7,10.7H32c-5.9,0-10.7-4.8-10.7-10.7v-42.7
				c0-5.9,4.8-10.7,10.7-10.7h320c5.9,0,10.7,4.8,10.7,10.7V480z M362.7,394.7c0,5.9-4.8,10.7-10.7,10.7H32
				c-5.9,0-10.7-4.8-10.7-10.7V352c0-5.9,4.8-10.7,10.7-10.7h320c5.9,0,10.7,4.8,10.7,10.7V394.7z"/>
			<path class="st0" d="M330.7,362.7h-85.3c-5.9,0-10.7,4.8-10.7,10.7s4.8,10.7,10.7,10.7h85.3c5.9,0,10.7-4.8,10.7-10.7
				C341.3,367.4,336.6,362.7,330.7,362.7z"/>
		</g>
	</g>
</g>
</svg>
