<?xml version="1.0" encoding="utf-8"?>
<!-- Generator: Adobe Illustrator 19.2.0, SVG Export Plug-In . SVG Version: 6.00 Build 0)  -->
<svg version="1.1" id="Layer_1" xmlns="http://www.w3.org/2000/svg" xmlns:xlink="http://www.w3.org/1999/xlink" x="0px" y="0px"
	 viewBox="0 0 512 512" style="enable-background:new 0 0 512 512;" xml:space="preserve">
<style type="text/css">
	.st0{fill:#C44C0E;}
</style>
<path class="st0" d="M418.4,512H94.1c-23.5,0-42.7-19.2-42.7-42.7V42.7C51.5,19.2,70.6,0,94.1,0h324.2C441.9,0,461,19.2,461,42.7
	v426.6C461.1,492.8,441.9,512,418.4,512z M94.1,17.1c-14.1,0-25.6,11.5-25.6,25.6v426.6c0,14.1,11.5,25.6,25.6,25.6h324.2
	c14.1,0,25.6-11.5,25.6-25.6V42.7c0-14.1-11.5-25.6-25.6-25.6L94.1,17.1z"/>
<path class="st0" d="M256.3,290.1c-42.3,0-76.8-34.4-76.8-76.8s34.5-76.8,76.8-76.8c42.4,0,76.8,34.4,76.8,76.8
	S298.6,290.1,256.3,290.1L256.3,290.1z M256.3,153.6c-32.9,0-59.7,26.8-59.7,59.7s26.8,59.7,59.7,59.7s59.7-26.8,59.7-59.7
	S289.2,153.6,256.3,153.6z"/>
<path class="st0" d="M256.3,247.5c-18.8,0-34.1-15.3-34.1-34.1s15.3-34.1,34.1-34.1s34.1,15.3,34.1,34.1S275.1,247.5,256.3,247.5z
	 M256.3,196.3c-9.4,0-17.1,7.7-17.1,17.1s7.7,17.1,17.1,17.1c9.4,0,17.1-7.7,17.1-17.1S265.7,196.3,256.3,196.3z"/>
<path class="st0" d="M172.6,435.2c-24.5,0-44.4-19.9-44.4-44.4c0-18,10.7-34,27.3-41l80.3-33.5c3.2-1.3,6.9-0.6,9.3,1.8
	c2.4,2.4,3.2,6.1,1.8,9.3l-33.5,80.3C206.7,424.5,190.6,435.2,172.6,435.2z M223.3,340.1l-61.2,25.5c-10.2,4.3-16.8,14.1-16.8,25.2
	c0,15.1,12.3,27.3,27.3,27.3c11.1,0,21-6.6,25.2-16.8L223.3,340.1z"/>
<path class="st0" d="M222.1,512h-128c-23.5,0-42.7-19.2-42.7-42.7V384c0-4.7,3.8-8.5,8.5-8.5h42.7c4.7,0,8.5,3.8,8.5,8.5
	c0,37.6,30.6,68.3,68.3,68.3h42.7c4.7,0,8.5,3.8,8.5,8.5v42.7C230.7,508.2,226.8,512,222.1,512z M68.5,392.5v76.8
	c0,14.1,11.5,25.6,25.6,25.6h119.4v-25.6h-34.1c-44.2,0-80.6-33.7-84.9-76.8L68.5,392.5z"/>
<path class="st0" d="M256.3,384c-12.6,0-25.5-1.5-38.5-4.5c-2.4-0.6-4.5-2.2-5.7-4.4c-1.1-2.2-1.2-4.9-0.3-7.2l11.6-27.8l-47.5,19.8
	c-2.5,1-5.4,0.8-7.7-0.6c-51.7-31.3-82.6-85.8-82.6-146c0-94.1,76.6-170.7,170.7-170.7s170.7,76.6,170.7,170.7S350.4,384,256.3,384
	L256.3,384z M231.5,364.8c8.4,1.4,16.6,2.1,24.7,2.1c84.7,0,153.6-68.9,153.6-153.6S340.9,59.7,256.2,59.7s-153.6,68.9-153.6,153.6
	c0,52.7,26.3,100.6,70.7,129.1l62.5-26.1c3.2-1.3,6.9-0.6,9.3,1.8c2.4,2.4,3.2,6.1,1.8,9.3L231.5,364.8z"/>
</svg>
