<?xml version="1.0" encoding="utf-8"?>
<!-- Generator: Adobe Illustrator 19.2.0, SVG Export Plug-In . SVG Version: 6.00 Build 0)  -->
<svg version="1.1" id="Layer_5" xmlns="http://www.w3.org/2000/svg" xmlns:xlink="http://www.w3.org/1999/xlink" x="0px" y="0px"
	 viewBox="0 0 512 512" style="enable-background:new 0 0 512 512;" xml:space="preserve">
<style type="text/css">
	.st0{fill:#C44C0E;}
</style>
<g>
	<path class="st0" d="M152,360h16v16h-16V360z"/>
	<path class="st0" d="M184,360h16v16h-16V360z"/>
	<path class="st0" d="M120,360h16v16h-16V360z"/>
	<path class="st0" d="M464,72H234.1C213.9,34,174,8,128,8C61.8,8,8,61.8,8,128c0,46,26,85.9,64,106.1V368c0,22.1,17.9,40,40,40
		h111.7c-1.3,12.8-8,24.3-18.4,32H184c-22.1,0-40,17.9-40,40c0,13.2,10.8,24,24,24h240c13.2,0,24-10.8,24-24c0-22.1-17.9-40-40-40
		h-21.3c-10.4-7.7-17-19.2-18.4-32H464c22.1,0,40-17.9,40-40V112C504,89.9,486.1,72,464,72z M120,247.6c2.7,0.2,5.3,0.4,8,0.4
		c39.1,0,73.9-18.9,95.8-48H280v-64h-32.4c0.2-2.7,0.4-5.3,0.4-8s-0.2-5.3-0.4-8H456v208H120V247.6z M172.9,71.8
		c-3.2-2.5-6.6-4.8-10.1-6.8L175,35.4c7.4,3.8,14.3,8.4,20.6,13.7L172.9,71.8z M148,58.9c-3.9-1.1-7.9-2-12-2.4V24.4
		c8.4,0.6,16.5,2.2,24.3,4.8L148,58.9z M120,56.5c-13.9,1.5-26.5,7-36.9,15.3L60.4,49.1c16.3-14,36.9-23,59.6-24.7V56.5z M128,72
		c30.9,0,56,25.1,56,56s-25.1,56-56,56s-56-25.1-56-56S97.1,72,128,72z M206.9,60.4c5.4,6.3,10,13.1,13.7,20.6L191,93.2
		c-2-3.6-4.3-7-6.8-10.1L206.9,60.4z M231.6,120h-32.1c-0.5-4.1-1.3-8.1-2.4-12l29.7-12.3C229.3,103.5,231,111.6,231.6,120z
		 M199.5,136h32.1c-0.6,8.4-2.2,16.5-4.8,24.3L197.1,148C198.2,144.1,199.1,140.1,199.5,136z M245.6,152H264v32h-29.9
		C239.3,174.1,243.3,163.3,245.6,152z M24,128c0-25.8,9.5-49.4,25.1-67.6l22.7,22.7C61.9,95.4,56,111,56,128c0,39.7,32.3,72,72,72
		c27.1,0,50.7-15.1,63-37.2l29.6,12.3c-17.2,33.8-52.2,57-92.6,57C70.7,232,24,185.3,24,128L24,128z M416,480c0,4.4-3.6,8-8,8H168
		c-4.4,0-8-3.6-8-8c0-13.2,10.8-24,24-24h208C405.2,456,416,466.8,416,480z M348.2,440H227.8c6.9-9.2,11-20.3,11.9-32h96.6
		C337.2,419.7,341.4,430.8,348.2,440L348.2,440z M488,368c0,13.2-10.8,24-24,24H112c-13.2,0-24-10.8-24-24V241
		c5.2,1.8,10.5,3.5,16,4.6V328c0,8.8,7.2,16,16,16h336c8.8,0,16-7.2,16-16V120c0-8.8-7.2-16-16-16H245.6c-1.1-5.5-2.7-10.8-4.6-16
		h223c13.2,0,24,10.8,24,24V368z"/>
	<path class="st0" d="M376,200h64v-64h-64V200z M392,152h32v32h-32V152z"/>
	<path class="st0" d="M360,136h-64v64h64V136z M344,184h-32v-32h32V184z"/>
	<path class="st0" d="M240,264h-48v16h-56v16h56v16h48v-16h200v-16H240V264z M224,296h-16v-16h16V296z"/>
	<path class="st0" d="M296,216h144v16H296V216z"/>
	<path class="st0" d="M296,248h16v16h-16V248z"/>
	<path class="st0" d="M328,248h112v16H328V248z"/>
</g>
</svg>
