<?xml version="1.0" encoding="utf-8"?>
<!-- Generator: Adobe Illustrator 19.2.0, SVG Export Plug-In . SVG Version: 6.00 Build 0)  -->
<svg version="1.1" id="Слой_1" xmlns="http://www.w3.org/2000/svg" xmlns:xlink="http://www.w3.org/1999/xlink" x="0px" y="0px"
	 viewBox="0 0 512 512" style="enable-background:new 0 0 512 512;" xml:space="preserve">
<style type="text/css">
	.st0{fill:url(#SVGID_1_);}
	.st1{fill:url(#SVGID_2_);}
	.st2{fill:url(#SVGID_3_);}
	.st3{fill:url(#SVGID_4_);}
	.st4{fill:url(#SVGID_5_);}
	.st5{fill:url(#SVGID_6_);}
	.st6{fill:url(#SVGID_7_);}
	.st7{fill:url(#SVGID_8_);}
	.st8{fill:url(#SVGID_9_);}
	.st9{fill:url(#SVGID_10_);}
</style>
<g id="Administrator-Worker-Setting-Computer-Laptop">
	<linearGradient id="SVGID_1_" gradientUnits="userSpaceOnUse" x1="155.9999" y1="16" x2="155.9999" y2="496">
		<stop  offset="0" style="stop-color:#FF7900"/>
		<stop  offset="1" style="stop-color:#C44C0E"/>
	</linearGradient>
	<path class="st0" d="M272,128v-24c0-48.6-39.4-88-88-88s-88,39.4-88,88v24c-13.3,0-24,10.7-24,24s10.7,24,24,24v8
		c0,33,18.6,63.3,48,78.3v27.8l-66.2,20.7c-36.8,11.4-61.9,45.5-61.8,84V488c0,4.4,3.6,8,8,8h216v-16H88v-88H72v88H32v-85.2
		c-0.1-31.5,20.4-59.4,50.6-68.7l42.2-13.2l-4.7,38.2c-0.4,2.8,0.8,5.7,3.1,7.4c1.4,1,3.1,1.6,4.8,1.6c1.1,0,2.1-0.2,3.1-0.6
		l52.9-22.6l52.9,22.6c1,0.4,2,0.6,3.1,0.6c1.7,0,3.4-0.6,4.8-1.6c2.3-1.7,3.5-4.5,3.1-7.4l-4.7-38.2l18.4,5.8l4.8-15.3L224,290.1
		v-27.8c29.4-15,48-45.3,48-78.3v-8c13.3,0,24-10.7,24-24S285.3,128,272,128z M96,160c-4.4,0-8-3.6-8-8s3.6-8,8-8V160z M137.7,339.1
		l3.9-31.5l8.2-2.6l20.2,20.2L137.7,339.1z M160,292.7v-24.2c15.7,4.6,32.3,4.6,48,0v24.2l-24,24L160,292.7z M226.4,307.6l3.9,31.5
		L198,325.3l20.2-20.2L226.4,307.6z M256,184c0,39.8-32.2,72-72,72s-72-32.2-72-72v-36.6c7.9-7.5,35.4-32.5,59.4-41.5
		c5,12.2,13.8,22.4,25,29.3c3.9,2,8.7,0.4,10.7-3.5c2.7-4.9,7-8.7,12.2-10.9c8.2,14,21.3,24.4,36.7,29.1V184z M256,132.9
		c-10.9-4.3-19.6-12.7-24.4-23.4c-1.1-3.2-4.2-5.4-7.6-5.4c-10.2,0.2-19.7,4.9-26,12.9c-6.4-6.7-11.3-14.7-14.4-23.4
		c-1.4-3.9-5.5-6.2-9.5-5.2c-22.2,5.5-47,24.6-62.1,37.6V104c0-39.8,32.2-72,72-72s72,32.2,72,72V132.9z M272,160v-16
		c4.4,0,8,3.6,8,8S276.4,160,272,160z"/>
	<linearGradient id="SVGID_2_" gradientUnits="userSpaceOnUse" x1="144" y1="152" x2="144" y2="168">
		<stop  offset="0" style="stop-color:#FF7900"/>
		<stop  offset="1" style="stop-color:#C44C0E"/>
	</linearGradient>
	<path class="st1" d="M136,152h16v16h-16V152z"/>
	<linearGradient id="SVGID_3_" gradientUnits="userSpaceOnUse" x1="224" y1="152" x2="224" y2="168">
		<stop  offset="0" style="stop-color:#FF7900"/>
		<stop  offset="1" style="stop-color:#C44C0E"/>
	</linearGradient>
	<path class="st2" d="M216,152h16v16h-16V152z"/>
	<linearGradient id="SVGID_4_" gradientUnits="userSpaceOnUse" x1="184" y1="200" x2="184" y2="232">
		<stop  offset="0" style="stop-color:#FF7900"/>
		<stop  offset="1" style="stop-color:#C44C0E"/>
	</linearGradient>
	<path class="st3" d="M216,200h-16c0,8.8-7.2,16-16,16s-16-7.2-16-16h-16c0,17.7,14.3,32,32,32S216,217.7,216,200z"/>
	<linearGradient id="SVGID_5_" gradientUnits="userSpaceOnUse" x1="376" y1="263.9999" x2="376" y2="496">
		<stop  offset="0" style="stop-color:#FF7900"/>
		<stop  offset="1" style="stop-color:#C44C0E"/>
	</linearGradient>
	<path class="st4" d="M495.5,453.2L472,390.5V288c0-13.3-10.7-24-24-24v16c4.4,0,8,3.6,8,8v96H296v-96c0-4.4,3.6-8,8-8v-16
		c-13.3,0-24,10.7-24,24v102.5l-23.5,62.6c-0.3,0.9-0.5,1.8-0.5,2.8v24c0,8.8,7.2,16,16,16h208c8.8,0,16-7.2,16-16v-24
		C496,455,495.8,454.1,495.5,453.2z M458.5,400l18,48h-54.7l-6.2-18.5c-1.1-3.3-4.1-5.5-7.6-5.5h-64c-3.4,0-6.5,2.2-7.6,5.5
		l-6.2,18.5h-54.7l18-48H458.5z M404.9,448h-57.8l2.7-8h52.5L404.9,448z M272,480v-16h208v16H272z"/>
	<linearGradient id="SVGID_6_" gradientUnits="userSpaceOnUse" x1="376" y1="320" x2="376" y2="336">
		<stop  offset="0" style="stop-color:#FF7900"/>
		<stop  offset="1" style="stop-color:#C44C0E"/>
	</linearGradient>
	<path class="st5" d="M368,320h16v16h-16V320z"/>
	<linearGradient id="SVGID_7_" gradientUnits="userSpaceOnUse" x1="408" y1="320" x2="408" y2="336">
		<stop  offset="0" style="stop-color:#FF7900"/>
		<stop  offset="1" style="stop-color:#C44C0E"/>
	</linearGradient>
	<path class="st6" d="M400,320h16v16h-16V320z"/>
	<linearGradient id="SVGID_8_" gradientUnits="userSpaceOnUse" x1="344" y1="320" x2="344" y2="336">
		<stop  offset="0" style="stop-color:#FF7900"/>
		<stop  offset="1" style="stop-color:#C44C0E"/>
	</linearGradient>
	<path class="st7" d="M336,320h16v16h-16V320z"/>
	<linearGradient id="SVGID_9_" gradientUnits="userSpaceOnUse" x1="376" y1="160" x2="376" y2="304">
		<stop  offset="0" style="stop-color:#FF7900"/>
		<stop  offset="1" style="stop-color:#C44C0E"/>
	</linearGradient>
	<path class="st8" d="M310.1,247.8l13.3,3.3c0.6,1.6,1.2,3.1,1.9,4.6l-7.1,11.8c-1.9,3.1-1.4,7.2,1.2,9.8l11.3,11.3
		c2.6,2.6,6.6,3.1,9.8,1.2l11.8-7.1c1.5,0.7,3,1.3,4.6,1.9l3.3,13.3c0.9,3.6,4.1,6.1,7.8,6.1h16c3.7,0,6.9-2.5,7.8-6.1l3.3-13.3
		c1.6-0.6,3.1-1.2,4.6-1.9l11.8,7.1c3.1,1.9,7.2,1.4,9.8-1.2l11.3-11.3c2.6-2.6,3.1-6.6,1.2-9.8l-7.1-11.8c0.7-1.5,1.3-3,1.9-4.6
		l13.3-3.3c3.6-0.9,6.1-4.1,6.1-7.8v-16c0-3.7-2.5-6.9-6.1-7.8l-13.3-3.3c-0.6-1.6-1.2-3.1-1.9-4.6l7.1-11.8
		c1.9-3.1,1.4-7.2-1.2-9.8l-11.3-11.3c-2.6-2.6-6.6-3.1-9.8-1.2l-11.8,7.1c-1.5-0.7-3-1.3-4.6-1.9l-3.3-13.3
		c-0.9-3.6-4.1-6.1-7.8-6.1h-16c-3.7,0-6.9,2.5-7.8,6.1l-3.3,13.3c-1.6,0.6-3.1,1.2-4.6,1.9l-11.8-7.1c-3.1-1.9-7.2-1.4-9.8,1.2
		l-11.3,11.3c-2.6,2.6-3.1,6.6-1.2,9.8l7.1,11.8c-0.7,1.5-1.3,3-1.9,4.6l-13.3,3.3c-3.6,0.9-6.1,4.1-6.1,7.8v16
		C304,243.7,306.5,246.9,310.1,247.8L310.1,247.8z M320,230.2l11.6-2.9c2.8-0.7,5-2.9,5.8-5.7c0.9-3.4,2.3-6.6,4-9.6
		c1.5-2.5,1.4-5.6-0.1-8.1l-6.2-10.3l2.5-2.5l10.3,6.2c2.5,1.5,5.6,1.5,8.1,0.1c3-1.7,6.2-3.1,9.6-4c2.8-0.8,5-3,5.7-5.8l2.9-11.6
		h3.5l2.9,11.6c0.7,2.8,2.9,5,5.7,5.8c3.4,0.9,6.6,2.3,9.6,4c2.5,1.5,5.6,1.4,8.1-0.1l10.3-6.1l2.5,2.5l-6.2,10.3
		c-1.5,2.5-1.5,5.6-0.1,8.1c1.7,3,3.1,6.2,4,9.6c0.8,2.8,3,5,5.8,5.7l11.6,2.9v3.5l-11.6,2.9c-2.8,0.7-5,2.9-5.8,5.7
		c-0.9,3.4-2.3,6.6-4,9.6c-1.5,2.5-1.4,5.6,0.1,8.1l6.2,10.3l-2.5,2.5l-10.3-6.2c-2.5-1.5-5.6-1.5-8.1-0.1c-3,1.7-6.2,3.1-9.6,4
		c-2.8,0.8-5,3-5.7,5.8l-2.9,11.6h-3.5l-2.9-11.6c-0.7-2.8-2.9-5-5.7-5.8c-3.4-0.9-6.6-2.3-9.6-4c-2.5-1.5-5.6-1.4-8.1,0.1
		l-10.3,6.2l-2.5-2.4l6.2-10.3c1.5-2.5,1.5-5.6,0.1-8.1c-1.7-3-3.1-6.2-4-9.6c-0.8-2.8-3-5-5.8-5.7l-11.6-3L320,230.2z"/>
	<linearGradient id="SVGID_10_" gradientUnits="userSpaceOnUse" x1="376" y1="200" x2="376" y2="264">
		<stop  offset="0" style="stop-color:#FF7900"/>
		<stop  offset="1" style="stop-color:#C44C0E"/>
	</linearGradient>
	<path class="st9" d="M376,264c17.7,0,32-14.3,32-32s-14.3-32-32-32s-32,14.3-32,32S358.3,264,376,264z M376,216c8.8,0,16,7.2,16,16
		s-7.2,16-16,16s-16-7.2-16-16S367.2,216,376,216z"/>
</g>
</svg>
