<?xml version="1.0" encoding="utf-8"?>
<!-- Generator: Adobe Illustrator 19.2.0, SVG Export Plug-In . SVG Version: 6.00 Build 0)  -->
<svg version="1.1" id="Слой_1" xmlns="http://www.w3.org/2000/svg" xmlns:xlink="http://www.w3.org/1999/xlink" x="0px" y="0px"
	 viewBox="0 0 512 512" style="enable-background:new 0 0 512 512;" xml:space="preserve">
<style type="text/css">
	.st0{fill:url(#SVGID_1_);}
	.st1{fill:url(#SVGID_2_);}
	.st2{fill:url(#SVGID_3_);}
	.st3{fill:url(#SVGID_4_);}
	.st4{fill:url(#SVGID_5_);}
	.st5{fill:url(#SVGID_6_);}
	.st6{fill:url(#SVGID_7_);}
	.st7{fill:url(#SVGID_8_);}
	.st8{fill:url(#SVGID_9_);}
	.st9{fill:url(#SVGID_10_);}
	.st10{fill:url(#SVGID_11_);}
	.st11{fill:url(#SVGID_12_);}
	.st12{fill:url(#SVGID_13_);}
	.st13{fill:url(#SVGID_14_);}
	.st14{fill:url(#SVGID_15_);}
	.st15{fill:url(#SVGID_16_);}
	.st16{fill:url(#SVGID_17_);}
	.st17{fill:url(#SVGID_18_);}
</style>
<g>
	<linearGradient id="SVGID_1_" gradientUnits="userSpaceOnUse" x1="256" y1="8" x2="256" y2="504">
		<stop  offset="0" style="stop-color:#FF7900"/>
		<stop  offset="1" style="stop-color:#C44C0E"/>
	</linearGradient>
	<path class="st0" d="M472,8H136c-17.7,0-32,14.3-32,32v208H32c-13.2,0-24,10.8-24,24v48c0,5.9,2.2,11.6,6.1,16
		c-4,4.4-6.1,10.1-6.1,16v48c0,5.9,2.2,11.6,6.1,16c-4,4.4-6.1,10.1-6.1,16v48c0,13.2,10.8,24,24,24h208c13.2,0,24-10.8,24-24v-48
		c0-5.9-2.2-11.6-6.1-16c2.1-2.3,3.7-5,4.8-8H472c17.7,0,32-14.3,32-32V40C504,22.3,489.7,8,472,8z M248,480c0,4.4-3.6,8-8,8H32
		c-4.4,0-8-3.6-8-8v-48c0-4.4,3.6-8,8-8h208c4.4,0,8,3.6,8,8V480z M248,399.4c0,0.2,0,0.4,0,0.6c0,0.1,0,0.2,0,0.3
		c-0.2,4.3-3.7,7.7-8,7.7H32c-4.4,0-8-3.6-8-8v-48c0-4.4,3.6-8,8-8h208c4.4,0,8,3.6,8,8V399.4z M248,320c0,4.4-3.6,8-8,8H32
		c-4.4,0-8-3.6-8-8v-48c0-4.4,3.6-8,8-8h79.4c0.2,0,0.4,0,0.6,0s0.4,0,0.6,0H240c4.4,0,8,3.6,8,8V320z M232,136c-8.8,0-16-7.2-16-16
		s7.2-16,16-16s16,7.2,16,16C248,128.8,240.8,136,232,136z M488,376c0,8.8-7.2,16-16,16H264v-40c0-5.9-2.2-11.6-6.1-16
		c4-4.4,6.1-10.1,6.1-16v-48c0-13.2-10.8-24-24-24v-97c17.1-4.4,27.4-21.9,23-39c-2.9-11.3-11.7-20.1-23-23V48c0-4.4-3.6-8-8-8
		s-8,3.6-8,8v41c-17.1,4.4-27.4,21.9-23,39c2.9,11.3,11.7,20.1,23,23v97H120V40c0-8.8,7.2-16,16-16h336c8.8,0,16,7.2,16,16V376z"/>
	<linearGradient id="SVGID_2_" gradientUnits="userSpaceOnUse" x1="304" y1="40" x2="304" y2="376">
		<stop  offset="0" style="stop-color:#FF7900"/>
		<stop  offset="1" style="stop-color:#C44C0E"/>
	</linearGradient>
	<path class="st1" d="M312,177V48c0-4.4-3.6-8-8-8s-8,3.6-8,8v129c-17.1,4.4-27.4,21.9-23,39c2.9,11.3,11.7,20.1,23,23v129
		c0,4.4,3.6,8,8,8s8-3.6,8-8V239c17.1-4.4,27.4-21.9,23-39C332.1,188.7,323.3,179.9,312,177L312,177z M304,224c-8.8,0-16-7.2-16-16
		s7.2-16,16-16s16,7.2,16,16C320,216.8,312.8,224,304,224z"/>
	<linearGradient id="SVGID_3_" gradientUnits="userSpaceOnUse" x1="376" y1="40" x2="376" y2="376">
		<stop  offset="0" style="stop-color:#FF7900"/>
		<stop  offset="1" style="stop-color:#C44C0E"/>
	</linearGradient>
	<path class="st2" d="M384,241V48c0-4.4-3.6-8-8-8s-8,3.6-8,8v193c-17.1,4.4-27.4,21.9-23,39c2.9,11.3,11.7,20.1,23,23v65
		c0,4.4,3.6,8,8,8s8-3.6,8-8v-65c17.1-4.4,27.4-21.9,23-39C404.1,252.7,395.3,243.9,384,241z M376,288c-8.8,0-16-7.2-16-16
		s7.2-16,16-16s16,7.2,16,16C392,280.8,384.8,288,376,288z"/>
	<linearGradient id="SVGID_4_" gradientUnits="userSpaceOnUse" x1="448" y1="40" x2="448" y2="376">
		<stop  offset="0" style="stop-color:#FF7900"/>
		<stop  offset="1" style="stop-color:#C44C0E"/>
	</linearGradient>
	<path class="st3" d="M456,177V48c0-4.4-3.6-8-8-8s-8,3.6-8,8v129c-17.1,4.4-27.4,21.9-23,39c2.9,11.3,11.7,20.1,23,23v129
		c0,4.4,3.6,8,8,8s8-3.6,8-8V239c17.1-4.4,27.4-21.9,23-39C476.1,188.7,467.3,179.9,456,177z M448,224c-8.8,0-16-7.2-16-16
		s7.2-16,16-16s16,7.2,16,16C464,216.8,456.8,224,448,224z"/>
	<linearGradient id="SVGID_5_" gradientUnits="userSpaceOnUse" x1="160" y1="40" x2="160" y2="192">
		<stop  offset="0" style="stop-color:#FF7900"/>
		<stop  offset="1" style="stop-color:#C44C0E"/>
	</linearGradient>
	<path class="st4" d="M160,40c-4.4,0-8,3.6-8,8v136c0,4.4,3.6,8,8,8s8-3.6,8-8V48C168,43.6,164.4,40,160,40z"/>
	<linearGradient id="SVGID_6_" gradientUnits="userSpaceOnUse" x1="160" y1="200" x2="160" y2="224">
		<stop  offset="0" style="stop-color:#FF7900"/>
		<stop  offset="1" style="stop-color:#C44C0E"/>
	</linearGradient>
	<path class="st5" d="M160,200c-4.4,0-8,3.6-8,8v8c0,4.4,3.6,8,8,8s8-3.6,8-8v-8C168,203.6,164.4,200,160,200z"/>
	<linearGradient id="SVGID_7_" gradientUnits="userSpaceOnUse" x1="56" y1="272" x2="56" y2="320">
		<stop  offset="0" style="stop-color:#FF7900"/>
		<stop  offset="1" style="stop-color:#C44C0E"/>
	</linearGradient>
	<path class="st6" d="M56,320c13.3,0,24-10.7,24-24s-10.7-24-24-24s-24,10.7-24,24C32,309.2,42.8,320,56,320z M56,288
		c4.4,0,8,3.6,8,8s-3.6,8-8,8s-8-3.6-8-8C48,291.6,51.6,288,56,288z"/>
	<linearGradient id="SVGID_8_" gradientUnits="userSpaceOnUse" x1="200" y1="272" x2="200" y2="288">
		<stop  offset="0" style="stop-color:#FF7900"/>
		<stop  offset="1" style="stop-color:#C44C0E"/>
	</linearGradient>
	<path class="st7" d="M168,288h64c4.4,0,8-3.6,8-8s-3.6-8-8-8h-64c-4.4,0-8,3.6-8,8S163.6,288,168,288z"/>
	<linearGradient id="SVGID_9_" gradientUnits="userSpaceOnUse" x1="224" y1="296" x2="224" y2="312">
		<stop  offset="0" style="stop-color:#FF7900"/>
		<stop  offset="1" style="stop-color:#C44C0E"/>
	</linearGradient>
	<path class="st8" d="M232,296h-16c-4.4,0-8,3.6-8,8s3.6,8,8,8h16c4.4,0,8-3.6,8-8S236.4,296,232,296z"/>
	<linearGradient id="SVGID_10_" gradientUnits="userSpaceOnUse" x1="140" y1="272" x2="140" y2="288">
		<stop  offset="0" style="stop-color:#FF7900"/>
		<stop  offset="1" style="stop-color:#C44C0E"/>
	</linearGradient>
	<path class="st9" d="M136,288h8c4.4,0,8-3.6,8-8s-3.6-8-8-8h-8c-4.4,0-8,3.6-8,8S131.6,288,136,288z"/>
	<linearGradient id="SVGID_11_" gradientUnits="userSpaceOnUse" x1="56" y1="352" x2="56" y2="400">
		<stop  offset="0" style="stop-color:#FF7900"/>
		<stop  offset="1" style="stop-color:#C44C0E"/>
	</linearGradient>
	<path class="st10" d="M56,352c-13.3,0-24,10.7-24,24s10.7,24,24,24s24-10.7,24-24C80,362.8,69.2,352,56,352z M56,384
		c-4.4,0-8-3.6-8-8s3.6-8,8-8s8,3.6,8,8C64,380.4,60.4,384,56,384z"/>
	<linearGradient id="SVGID_12_" gradientUnits="userSpaceOnUse" x1="200" y1="352" x2="200" y2="368">
		<stop  offset="0" style="stop-color:#FF7900"/>
		<stop  offset="1" style="stop-color:#C44C0E"/>
	</linearGradient>
	<path class="st11" d="M240,360c0-4.4-3.6-8-8-8h-64c-4.4,0-8,3.6-8,8s3.6,8,8,8h64C236.4,368,240,364.4,240,360z"/>
	<linearGradient id="SVGID_13_" gradientUnits="userSpaceOnUse" x1="224" y1="376" x2="224" y2="392">
		<stop  offset="0" style="stop-color:#FF7900"/>
		<stop  offset="1" style="stop-color:#C44C0E"/>
	</linearGradient>
	<path class="st12" d="M232,376h-16c-4.4,0-8,3.6-8,8s3.6,8,8,8h16c4.4,0,8-3.6,8-8S236.4,376,232,376z"/>
	<linearGradient id="SVGID_14_" gradientUnits="userSpaceOnUse" x1="140" y1="352" x2="140" y2="368">
		<stop  offset="0" style="stop-color:#FF7900"/>
		<stop  offset="1" style="stop-color:#C44C0E"/>
	</linearGradient>
	<path class="st13" d="M144,352h-8c-4.4,0-8,3.6-8,8s3.6,8,8,8h8c4.4,0,8-3.6,8-8S148.4,352,144,352z"/>
	<linearGradient id="SVGID_15_" gradientUnits="userSpaceOnUse" x1="56" y1="432" x2="56" y2="480">
		<stop  offset="0" style="stop-color:#FF7900"/>
		<stop  offset="1" style="stop-color:#C44C0E"/>
	</linearGradient>
	<path class="st14" d="M56,432c-13.3,0-24,10.7-24,24s10.7,24,24,24s24-10.7,24-24C80,442.8,69.2,432,56,432z M56,464
		c-4.4,0-8-3.6-8-8s3.6-8,8-8s8,3.6,8,8C64,460.4,60.4,464,56,464z"/>
	<linearGradient id="SVGID_16_" gradientUnits="userSpaceOnUse" x1="200" y1="432" x2="200" y2="448">
		<stop  offset="0" style="stop-color:#FF7900"/>
		<stop  offset="1" style="stop-color:#C44C0E"/>
	</linearGradient>
	<path class="st15" d="M232,432h-64c-4.4,0-8,3.6-8,8s3.6,8,8,8h64c4.4,0,8-3.6,8-8S236.4,432,232,432z"/>
	<linearGradient id="SVGID_17_" gradientUnits="userSpaceOnUse" x1="224" y1="456" x2="224" y2="472">
		<stop  offset="0" style="stop-color:#FF7900"/>
		<stop  offset="1" style="stop-color:#C44C0E"/>
	</linearGradient>
	<path class="st16" d="M232,456h-16c-4.4,0-8,3.6-8,8s3.6,8,8,8h16c4.4,0,8-3.6,8-8S236.4,456,232,456z"/>
	<linearGradient id="SVGID_18_" gradientUnits="userSpaceOnUse" x1="140" y1="432" x2="140" y2="448">
		<stop  offset="0" style="stop-color:#FF7900"/>
		<stop  offset="1" style="stop-color:#C44C0E"/>
	</linearGradient>
	<path class="st17" d="M144,432h-8c-4.4,0-8,3.6-8,8s3.6,8,8,8h8c4.4,0,8-3.6,8-8S148.4,432,144,432z"/>
</g>
</svg>
