<?xml version="1.0" encoding="utf-8"?>
<!-- Generator: Adobe Illustrator 19.2.0, SVG Export Plug-In . SVG Version: 6.00 Build 0)  -->
<svg version="1.1" id="Слой_1" xmlns="http://www.w3.org/2000/svg" xmlns:xlink="http://www.w3.org/1999/xlink" x="0px" y="0px"
	 viewBox="0 0 512 512" style="enable-background:new 0 0 512 512;" xml:space="preserve">
<style type="text/css">
	.st0{fill:url(#Shape_9_);}
	.st1{fill:url(#Shape_10_);}
	.st2{fill:url(#Shape_11_);}
	.st3{fill:url(#Shape_12_);}
	.st4{fill:url(#Shape_13_);}
	.st5{fill:url(#Shape_14_);}
	.st6{fill:url(#Shape_15_);}
	.st7{fill:url(#Shape_16_);}
	.st8{fill:url(#Shape_17_);}
	.st9{fill:url(#Oval_3_);}
	.st10{fill:url(#Oval_4_);}
	.st11{fill:url(#Oval_5_);}
</style>
<g id="Page-1">
	<g id="_x30_96---Script-File">
		<linearGradient id="Shape_9_" gradientUnits="userSpaceOnUse" x1="59.7333" y1="247.4666" x2="59.7333" y2="213.3333">
			<stop  offset="0" style="stop-color:#9F2FFF"/>
			<stop  offset="1" style="stop-color:#0BB1D3"/>
		</linearGradient>
		<path id="Shape" class="st0" d="M59.7,213.3c-4.7,0-8.5,3.8-8.5,8.5v17.1c0,4.7,3.8,8.5,8.5,8.5s8.5-3.8,8.5-8.5v-17.1
			C68.3,217.2,64.4,213.3,59.7,213.3z"/>
		<linearGradient id="Shape_10_" gradientUnits="userSpaceOnUse" x1="59.7333" y1="435.2" x2="59.7333" y2="264.5333">
			<stop  offset="0" style="stop-color:#9F2FFF"/>
			<stop  offset="1" style="stop-color:#0BB1D3"/>
		</linearGradient>
		<path id="Shape_1_" class="st1" d="M59.7,264.5c-4.7,0-8.5,3.8-8.5,8.5v153.6c0,4.7,3.8,8.5,8.5,8.5s8.5-3.8,8.5-8.5V273.1
			C68.3,268.4,64.4,264.5,59.7,264.5z"/>
		<linearGradient id="Shape_11_" gradientUnits="userSpaceOnUse" x1="256" y1="512" x2="256" y2="-3.316787e-05">
			<stop  offset="0" style="stop-color:#9F2FFF"/>
			<stop  offset="1" style="stop-color:#0BB1D3"/>
		</linearGradient>
		<path id="Shape_2_" class="st2" d="M366.9,0H68.3c-4,0-7.5,2.8-8.3,6.7L17.3,203c-0.1,0.6-0.2,1.2-0.2,1.8v264.5
			c0,23.6,19.1,42.6,42.7,42.7h307.2c23.6,0,42.6-19.1,42.7-42.7v-8.5h42.7c23.6,0,42.6-19.1,42.7-42.7V230.4
			c0-23.6-19.1-42.6-42.7-42.7h-42.7V42.7C409.6,19.1,390.5,0,366.9,0z M73.6,24l51.9,42.4c5.8,4.8,9.3,11.9,9.4,19.4
			c0.1,7.5-3.1,14.7-8.7,19.7l-86.7,75.9L73.6,24z M452.3,204.8c14.1,0,25.6,11.5,25.6,25.6v187.7c0,14.1-11.5,25.6-25.6,25.6H213.3
			c-14.1,0-25.6-11.5-25.6-25.6V230.4c0-14.1,11.5-25.6,25.6-25.6H452.3z M213.3,187.7c-23.6,0-42.6,19.1-42.7,42.7v187.7
			c0,23.6,19.1,42.6,42.7,42.7h179.2v8.5c0,14.1-11.5,25.6-25.6,25.6H59.7c-14.1,0-25.6-11.5-25.6-25.6V208.7l103.3-90.4
			c9.4-8.3,14.8-20.3,14.6-32.8s-5.9-24.4-15.6-32.3L92.2,17.1h274.8c14.1,0,25.6,11.5,25.6,25.6v145.1H213.3z"/>
		<linearGradient id="Shape_12_" gradientUnits="userSpaceOnUse" x1="187.7333" y1="102.4" x2="187.7333" y2="85.3333">
			<stop  offset="0" style="stop-color:#9F2FFF"/>
			<stop  offset="1" style="stop-color:#0BB1D3"/>
		</linearGradient>
		<path id="Shape_3_" class="st3" d="M196.3,85.3h-17.1c-4.7,0-8.5,3.8-8.5,8.5c0,4.7,3.8,8.5,8.5,8.5h17.1c4.7,0,8.5-3.8,8.5-8.5
			C204.8,89.2,201,85.3,196.3,85.3z"/>
		<linearGradient id="Shape_13_" gradientUnits="userSpaceOnUse" x1="290.1333" y1="102.4" x2="290.1333" y2="85.3333">
			<stop  offset="0" style="stop-color:#9F2FFF"/>
			<stop  offset="1" style="stop-color:#0BB1D3"/>
		</linearGradient>
		<path id="Shape_4_" class="st4" d="M349.9,85.3H230.4c-4.7,0-8.5,3.8-8.5,8.5c0,4.7,3.8,8.5,8.5,8.5h119.5c4.7,0,8.5-3.8,8.5-8.5
			C358.4,89.2,354.6,85.3,349.9,85.3z"/>
		<linearGradient id="Shape_14_" gradientUnits="userSpaceOnUse" x1="162.1333" y1="153.6" x2="162.1333" y2="136.5333">
			<stop  offset="0" style="stop-color:#9F2FFF"/>
			<stop  offset="1" style="stop-color:#0BB1D3"/>
		</linearGradient>
		<path id="Shape_5_" class="st5" d="M179.2,136.5h-34.1c-4.7,0-8.5,3.8-8.5,8.5c0,4.7,3.8,8.5,8.5,8.5h34.1c4.7,0,8.5-3.8,8.5-8.5
			C187.7,140.4,183.9,136.5,179.2,136.5z"/>
		<linearGradient id="Shape_15_" gradientUnits="userSpaceOnUse" x1="281.6" y1="153.6" x2="281.6" y2="136.5333">
			<stop  offset="0" style="stop-color:#9F2FFF"/>
			<stop  offset="1" style="stop-color:#0BB1D3"/>
		</linearGradient>
		<path id="Shape_6_" class="st6" d="M349.9,136.5H213.3c-4.7,0-8.5,3.8-8.5,8.5c0,4.7,3.8,8.5,8.5,8.5h136.5c4.7,0,8.5-3.8,8.5-8.5
			C358.4,140.4,354.6,136.5,349.9,136.5z"/>
		<linearGradient id="Shape_16_" gradientUnits="userSpaceOnUse" x1="238.9333" y1="409.6721" x2="238.9333" y2="238.8612">
			<stop  offset="0" style="stop-color:#9F2FFF"/>
			<stop  offset="1" style="stop-color:#0BB1D3"/>
		</linearGradient>
		<path id="Shape_7_" class="st7" d="M204.8,324.3c0,4.7,3.8,8.5,8.5,8.5c9.3,0,17.1,5.7,17.1,12.4v34.9
			c1.4,17.5,16.6,30.6,34.1,29.5c4.7,0,8.5-3.8,8.5-8.5s-3.8-8.5-8.5-8.5c-9.3,0-17.1-5.7-17.1-12.4v-34.9
			c-0.1-8.1-3.9-15.8-10.2-20.9c6.3-5.1,10-12.8,10.2-20.9v-34.9c0-6.7,7.8-12.4,17.1-12.4c4.7,0,8.5-3.8,8.5-8.5
			c0-4.7-3.8-8.5-8.5-8.5c-17.5-1.2-32.7,12-34.1,29.5v34.9c0,6.7-7.8,12.4-17.1,12.4C208.6,315.7,204.8,319.6,204.8,324.3z"/>
		<linearGradient id="Shape_17_" gradientUnits="userSpaceOnUse" x1="426.6667" y1="409.6721" x2="426.6667" y2="238.8612">
			<stop  offset="0" style="stop-color:#9F2FFF"/>
			<stop  offset="1" style="stop-color:#0BB1D3"/>
		</linearGradient>
		<path id="Shape_8_" class="st8" d="M401.1,256c9.3,0,17.1,5.7,17.1,12.4v34.9c0.1,8.1,3.9,15.8,10.2,20.9
			c-6.3,5.1-10,12.8-10.2,20.9v34.9c0,6.7-7.8,12.4-17.1,12.4c-4.7,0-8.5,3.8-8.5,8.5s3.8,8.5,8.5,8.5c17.5,1.2,32.7-12,34.1-29.5
			v-34.9c0-6.7,7.8-12.4,17.1-12.4c4.7,0,8.5-3.8,8.5-8.5s-3.8-8.5-8.5-8.5c-9.3,0-17.1-5.7-17.1-12.4v-34.9
			c-1.4-17.5-16.6-30.6-34.1-29.5c-4.7,0-8.5,3.8-8.5,8.5C392.5,252.2,396.4,256,401.1,256L401.1,256z"/>
		<linearGradient id="Oval_3_" gradientUnits="userSpaceOnUse" x1="281.6" y1="366.9333" x2="281.6" y2="349.8667">
			<stop  offset="0" style="stop-color:#9F2FFF"/>
			<stop  offset="1" style="stop-color:#0BB1D3"/>
		</linearGradient>
		<circle id="Oval" class="st9" cx="281.6" cy="358.4" r="8.5"/>
		<linearGradient id="Oval_4_" gradientUnits="userSpaceOnUse" x1="332.8" y1="366.9333" x2="332.8" y2="349.8667">
			<stop  offset="0" style="stop-color:#9F2FFF"/>
			<stop  offset="1" style="stop-color:#0BB1D3"/>
		</linearGradient>
		<circle id="Oval_1_" class="st10" cx="332.8" cy="358.4" r="8.5"/>
		<linearGradient id="Oval_5_" gradientUnits="userSpaceOnUse" x1="384" y1="366.9333" x2="384" y2="349.8667">
			<stop  offset="0" style="stop-color:#9F2FFF"/>
			<stop  offset="1" style="stop-color:#0BB1D3"/>
		</linearGradient>
		<circle id="Oval_2_" class="st11" cx="384" cy="358.4" r="8.5"/>
	</g>
</g>
</svg>
