<?xml version="1.0" encoding="utf-8"?>
<!-- Generator: Adobe Illustrator 19.2.0, SVG Export Plug-In . SVG Version: 6.00 Build 0)  -->
<svg version="1.1" id="Layer_5" xmlns="http://www.w3.org/2000/svg" xmlns:xlink="http://www.w3.org/1999/xlink" x="0px" y="0px"
	 viewBox="0 0 512 512" style="enable-background:new 0 0 512 512;" xml:space="preserve">
<style type="text/css">
	.st0{fill:url(#SVGID_1_);}
</style>
<linearGradient id="SVGID_1_" gradientUnits="userSpaceOnUse" x1="-111.5" y1="486.155" x2="-111.5" y2="548.155" gradientTransform="matrix(8 0 0 -8 1148 4393.2397)">
	<stop  offset="0" style="stop-color:#9F2FFF"/>
	<stop  offset="1" style="stop-color:#0BB1D3"/>
</linearGradient>
<path class="st0" d="M360,120c-17.6,0-32,14.4-32,32s14.4,32,32,32s32-14.4,32-32S377.6,120,360,120z M360,168c-8.8,0-16-7.2-16-16
	s7.2-16,16-16s16,7.2,16,16S368.8,168,360,168z M200,248c0-8.8-7.2-16-16-16c-17.6,0-32-14.4-32-32s14.4-32,32-32s32,14.4,32,32h-16
	c0-8.8-7.2-16-16-16s-16,7.2-16,16s7.2,16,16,16c17.6,0,32,14.4,32,32s-14.4,32-32,32s-32-14.4-32-32h16c0,8.8,7.2,16,16,16
	S200,256.8,200,248z M104,280c17.6,0,32-14.4,32-32v-48c0-17.6-14.4-32-32-32s-32,14.4-32,32v48C72,265.6,86.4,280,104,280z M88,200
	c0-8.8,7.2-16,16-16s16,7.2,16,16v48c0,8.8-7.2,16-16,16s-16-7.2-16-16V200z M360,8c-62.6,0-115.8,40.2-135.6,96H48
	c-22.1,0-40,17.9-40,40v224c0,22.1,17.9,40,40,40h128v16h-46.1c-9.2,0-17.4,5.1-21.5,13.3L96,462.1V504h256v-41.9l-12.4-24.8
	c-4.1-8.2-12.3-13.3-21.5-13.3H272v-16h128c22.1,0,40-17.9,40-40v-96.4c38.6-25.9,64-69.8,64-119.6C504,72.6,439.4,8,360,8z
	 M417.7,179.6l50.6,40.5c-3.7,5.8-7.8,11.4-12.4,16.5l-45.4-45.4C413.3,187.6,415.7,183.7,417.7,179.6L417.7,179.6z M428,260.2
	l-40.5-50.6c4.1-2,8-4.4,11.6-7.2l45.4,45.4C439.4,252.4,433.9,256.5,428,260.2z M360,200c-26.5,0-48-21.5-48-48s21.5-48,48-48
	s48,21.5,48,48S386.5,200,360,200z M302.3,124.4L251.8,84c3.7-5.8,7.8-11.4,12.4-16.5l45.4,45.4
	C306.7,116.4,304.3,120.3,302.3,124.4L302.3,124.4z M320.8,101.5l-45.4-45.4c5.2-4.6,10.7-8.7,16.5-12.4l40.5,50.6
	C328.3,96.3,324.4,98.7,320.8,101.5L320.8,101.5z M244,98.2l53.1,42.5c-0.7,3.7-1.1,7.4-1.1,11.3c0,35.3,28.7,64,64,64
	c3.9,0,7.6-0.4,11.3-1.1l42.5,53.1c-16.4,7.6-34.5,12-53.8,12c-70.6,0-128-57.4-128-128C232,132.8,236.4,114.6,244,98.2L244,98.2z
	 M232,217.7V296H56V152h160C216,175.7,221.8,198,232,217.7z M129.9,440H176v16h-59.1l5.8-11.6C124.1,441.7,126.8,440,129.9,440z
	 M112,488v-16h224v16H112z M318.1,440c3,0,5.8,1.7,7.2,4.4l5.8,11.6H272v-16H318.1z M256,456h-64v-48h64V456z M400,392H48
	c-13.2,0-24-10.8-24-24v-24h120v8c0,13.2,10.8,24,24,24h112c13.2,0,24-10.8,24-24v-8h120v24C424,381.2,413.2,392,400,392z M288,344
	v8c0,4.4-3.6,8-8,8h-24v-16H288z M240,360h-32v-16h32V360z M192,360h-24c-4.4,0-8-3.6-8-8v-8h32V360z M424,328H24V144
	c0-13.2,10.8-24,24-24h171.7c-1.2,5.2-2.2,10.6-2.8,16H56c-8.8,0-16,7.2-16,16v144c0,8.8,7.2,16,16,16h176c8.8,0,16-7.2,16-16v-53.7
	C274.4,275,314.8,296,360,296c23,0,44.7-5.6,64-15.2V328z M476,205.8l-53.1-42.5c0.7-3.7,1.1-7.4,1.1-11.3c0-35.3-28.7-64-64-64
	c-3.9,0-7.6,0.4-11.3,1.1L306.2,36c16.4-7.6,34.5-12,53.8-12c70.6,0,128,57.4,128,128C488,171.2,483.6,189.4,476,205.8L476,205.8z
	 M454.9,137.2l15.8-2.4c0.9,5.7,1.3,11.5,1.3,17.2h-16C456,147.1,455.6,142.1,454.9,137.2L454.9,137.2z M466.6,117.5l-15.2,4.9
	C438.5,82.7,401.8,56,360,56V40C408.8,40,451.6,71.2,466.6,117.5z"/>
</svg>
