<?xml version="1.0" encoding="utf-8"?>
<!-- Generator: Adobe Illustrator 19.2.0, SVG Export Plug-In . SVG Version: 6.00 Build 0)  -->
<svg version="1.1" id="Слой_1" xmlns="http://www.w3.org/2000/svg" xmlns:xlink="http://www.w3.org/1999/xlink" x="0px" y="0px"
	 viewBox="0 0 512 512" style="enable-background:new 0 0 512 512;" xml:space="preserve">
<style type="text/css">
	.st0{fill:url(#SVGID_1_);}
	.st1{fill:url(#SVGID_2_);}
	.st2{fill:url(#SVGID_3_);}
	.st3{fill:url(#SVGID_4_);}
	.st4{fill:url(#SVGID_5_);}
	.st5{fill:url(#SVGID_6_);}
	.st6{fill:url(#SVGID_7_);}
	.st7{fill:url(#SVGID_8_);}
	.st8{fill:url(#SVGID_9_);}
	.st9{fill:url(#SVGID_10_);}
</style>
<g id="Work-Global-Job-Home-Woid">
	<linearGradient id="SVGID_1_" gradientUnits="userSpaceOnUse" x1="105.7104" y1="147.6184" x2="105.7104" y2="288">
		<stop  offset="0" style="stop-color:#9F2FFF"/>
		<stop  offset="1" style="stop-color:#0BB1D3"/>
	</linearGradient>
	<path class="st0" d="M80,288c4.4,0,8-3.6,8-8c-0.1-44.6,17.6-87.4,49.2-118.8c3.1-3.2,3-8.2-0.2-11.3c-3.1-3-8-3-11.1,0
		C91.2,184.3,71.9,231.2,72,280C72,284.4,75.6,288,80,288z"/>
	<linearGradient id="SVGID_2_" gradientUnits="userSpaceOnUse" x1="406.1913" y1="147.4218" x2="406.1913" y2="288">
		<stop  offset="0" style="stop-color:#9F2FFF"/>
		<stop  offset="1" style="stop-color:#0BB1D3"/>
	</linearGradient>
	<path class="st1" d="M424,280c0,4.4,3.6,8,8,8s8-3.6,8-8c0.1-48.8-19.2-95.7-53.9-130.1c-3.1-3.2-8.1-3.3-11.3-0.2
		c-3.2,3.1-3.3,8.1-0.2,11.3c0.1,0.1,0.1,0.1,0.2,0.2C406.4,192.6,424.1,235.4,424,280z"/>
	<linearGradient id="SVGID_3_" gradientUnits="userSpaceOnUse" x1="256" y1="15.9491" x2="256" y2="207.9496">
		<stop  offset="0" style="stop-color:#9F2FFF"/>
		<stop  offset="1" style="stop-color:#0BB1D3"/>
	</linearGradient>
	<path class="st2" d="M321.9,42.2C283.4,5.8,222.6,7.5,186.2,46s-34.7,99.3,3.9,135.7s99.3,34.7,135.7-3.9
		c16.8-17.8,26.2-41.4,26.2-65.9C352.1,85.6,341.2,60.3,321.9,42.2z M335.6,104h-31.8c-0.4-11.6-1.9-23-4.5-34.3
		c5.9-3,11.4-6.6,16.5-10.7C327.1,71.5,334,87.3,335.6,104z M303.9,48c-2.9,2.2-6,4.2-9.2,5.9c-2-5.3-4.4-10.5-7.2-15.4
		C293.3,41,298.8,44.2,303.9,48z M256,32c8.5,0,17.5,10.8,23.8,28.3c-7.7,2.4-15.8,3.7-23.8,3.7c-8.1,0-16.1-1.3-23.8-3.7
		C238.5,42.8,247.5,32,256,32z M256,80c9.5,0,19-1.5,28.2-4.2c2,9.3,3.3,18.7,3.7,28.2h-63.7c0.4-9.5,1.6-19,3.7-28.2
		C237,78.5,246.5,80,256,80z M224.5,38.6c-2.8,4.9-5.2,10-7.2,15.4c-3.2-1.7-6.3-3.7-9.2-5.9C213.2,44.2,218.7,41,224.5,38.6z
		 M196.2,59c5.1,4.1,10.6,7.7,16.5,10.7c-2.6,11.3-4.1,22.8-4.5,34.3h-31.8C178,87.3,184.9,71.5,196.2,59z M176.4,120h31.8
		c0.4,11.6,1.9,23,4.5,34.3c-5.9,3-11.4,6.6-16.5,10.7C184.9,152.5,178,136.7,176.4,120z M208.1,176c2.9-2.2,6-4.2,9.2-5.9
		c2,5.3,4.4,10.5,7.2,15.4C218.7,183,213.2,179.8,208.1,176L208.1,176z M256,192c-8.5,0-17.5-10.8-23.8-28.3
		c15.5-4.9,32.2-4.9,47.7,0C273.5,181.2,264.5,192,256,192z M256,144c-9.5,0-19,1.5-28.2,4.2c-2-9.3-3.3-18.7-3.7-28.2h63.7
		c-0.4,9.5-1.6,19-3.7,28.2C275,145.5,265.5,144,256,144z M287.5,185.4c2.8-4.9,5.2-10,7.2-15.4c3.2,1.7,6.3,3.7,9.2,5.9
		C298.8,179.8,293.3,183,287.5,185.4z M315.8,165c-5.1-4.1-10.6-7.7-16.5-10.7c2.6-11.3,4.1-22.8,4.5-34.3h31.8
		C334,136.7,327.1,152.5,315.8,165L315.8,165z"/>
	<linearGradient id="SVGID_4_" gradientUnits="userSpaceOnUse" x1="256" y1="224" x2="256" y2="496">
		<stop  offset="0" style="stop-color:#9F2FFF"/>
		<stop  offset="1" style="stop-color:#0BB1D3"/>
	</linearGradient>
	<path class="st3" d="M488,404.7L419.3,336c-6.2-6.2-16.3-6.2-22.5,0c0,0,0,0,0,0l-61.4,61.4c-3.3-17-18.2-29.3-35.5-29.4h-13.1
		l-3.8-19.9c17.6-7.5,29.1-24.9,29.1-44.1v-32c0-26.5-21.5-48-48-48h-16c-26.5,0-48,21.5-48,48v32c0,19.2,11.5,36.5,29.1,44.1
		l-3.8,19.9h-13.1c-17.3,0-32.2,12.3-35.5,29.4L115.3,336c-6.2-6.2-16.3-6.2-22.5,0c0,0,0,0,0,0L24,404.7
		c-4.6,4.6-5.9,11.5-3.4,17.4c2.4,6,8.3,9.9,14.7,9.8H40v56c0,4.4,3.6,8,8,8h32c4.4,0,8-3.6,8-8v-24c0-4.4,3.6-8,8-8h16
		c4.4,0,8,3.6,8,8v24c0,4.4,3.6,8,8,8h32c4.4,0,8-3.6,8-8v-56h4.7c1.1,0,2.2-0.2,3.3-0.5V456c0,4.4,3.6,8,8,8h144c4.4,0,8-3.6,8-8
		v-24.5c1.1,0.3,2.2,0.4,3.3,0.5h4.7v56c0,4.4,3.6,8,8,8h32c4.4,0,8-3.6,8-8v-24c0-4.4,3.6-8,8-8h16c4.4,0,8,3.6,8,8v24
		c0,4.4,3.6,8,8,8h32c4.4,0,8-3.6,8-8v-56h4.7c6.5,0,12.3-3.9,14.7-9.8C493.9,416.2,492.6,409.3,488,404.7z M160,416
		c-4.4,0-8,3.6-8,8v56h-16v-16c0-13.2-10.8-24-24-24H96c-13.2,0-24,10.8-24,24v16H56v-56c0-4.4-3.6-8-8-8H35.3l68.7-68.7l68.7,68.7
		H160z M216,272c0-17.7,14.3-32,32-32h16c15.5,0,28.7,11.1,31.4,26.3c-6.6-4.2-13.6-7.5-21-9.9c-3.5-1.1-7.4,0.3-9.3,3.5
		c-4.2,6.8-10.1,12.3-17.1,16.1v-4c0-3.2-2-6.2-5-7.4c-3-1.3-6.4-0.6-8.7,1.7c-5.1,5.3-11.4,9.3-18.3,11.8V272z M216,304v-9.3
		c5.6-1.4,11-3.6,16-6.6c0.1,2.4,1.2,4.6,3,6.2c1.4,1.1,3.2,1.7,5,1.7c0.6,0,1.2-0.1,1.8-0.2c13.1-3.7,24.7-11.4,33.2-22.1
		c8.1,3.4,18.7,9.4,21,15.8V304c0,17.7-14.3,32-32,32h-16C230.3,336,216,321.7,216,304z M275.1,382.3c-3.4,10.6-14.7,16.4-25.3,13
		c-6.2-2-11-6.8-13-13c1.6-1.2,2.6-2.9,3-4.9l4.9-25.6c1,0.1,2.2,0.2,3.3,0.2h16c1.1,0,2.2-0.1,3.3-0.2l4.9,25.6
		C272.5,379.4,273.6,381.1,275.1,382.3z M320,448H192v-43.8c0-11.2,9-20.2,20.2-20.2c0,0,0,0,0,0h8.5c4.4,19.5,23.7,31.7,43.2,27.4
		c13.6-3.1,24.3-13.7,27.4-27.4h8.5c11.2,0,20.2,9,20.2,20.2c0,0,0,0,0,0V448z M464,416c-4.4,0-8,3.6-8,8v56h-16v-16
		c0-13.2-10.8-24-24-24h-16c-13.2,0-24,10.8-24,24v16h-16v-56c0-4.4-3.6-8-8-8h-12.7l68.7-68.7l68.7,68.7H464z"/>
	<linearGradient id="SVGID_5_" gradientUnits="userSpaceOnUse" x1="412" y1="80" x2="412" y2="120">
		<stop  offset="0" style="stop-color:#9F2FFF"/>
		<stop  offset="1" style="stop-color:#0BB1D3"/>
	</linearGradient>
	<path class="st4" d="M400,96c8.8,0,16,7.2,16,16c0,4.4,3.6,8,8,8s8-3.6,8-8c0-17.7-14.3-32-32-32c-4.4,0-8,3.6-8,8S395.6,96,400,96
		z"/>
	<linearGradient id="SVGID_6_" gradientUnits="userSpaceOnUse" x1="428" y1="48" x2="428" y2="120">
		<stop  offset="0" style="stop-color:#9F2FFF"/>
		<stop  offset="1" style="stop-color:#0BB1D3"/>
	</linearGradient>
	<path class="st5" d="M400,64c26.5,0,48,21.5,48,48c0,4.4,3.6,8,8,8s8-3.6,8-8c0-35.3-28.7-64-64-64c-4.4,0-8,3.6-8,8
		S395.6,64,400,64z"/>
	<linearGradient id="SVGID_7_" gradientUnits="userSpaceOnUse" x1="444" y1="16" x2="444" y2="120">
		<stop  offset="0" style="stop-color:#9F2FFF"/>
		<stop  offset="1" style="stop-color:#0BB1D3"/>
	</linearGradient>
	<path class="st6" d="M400,16c-4.4,0-8,3.6-8,8s3.6,8,8,8c44.2,0,80,35.8,80,80c0,4.4,3.6,8,8,8s8-3.6,8-8C495.9,59,453,16.1,400,16
		z"/>
	<linearGradient id="SVGID_8_" gradientUnits="userSpaceOnUse" x1="100" y1="80" x2="100" y2="120">
		<stop  offset="0" style="stop-color:#9F2FFF"/>
		<stop  offset="1" style="stop-color:#0BB1D3"/>
	</linearGradient>
	<path class="st7" d="M112,80c-17.7,0-32,14.3-32,32c0,4.4,3.6,8,8,8s8-3.6,8-8c0-8.8,7.2-16,16-16c4.4,0,8-3.6,8-8S116.4,80,112,80
		z"/>
	<linearGradient id="SVGID_9_" gradientUnits="userSpaceOnUse" x1="84" y1="48" x2="84" y2="120">
		<stop  offset="0" style="stop-color:#9F2FFF"/>
		<stop  offset="1" style="stop-color:#0BB1D3"/>
	</linearGradient>
	<path class="st8" d="M112,48c-35.3,0-64,28.7-64,64c0,4.4,3.6,8,8,8s8-3.6,8-8c0-26.5,21.5-48,48-48c4.4,0,8-3.6,8-8
		S116.4,48,112,48z"/>
	<linearGradient id="SVGID_10_" gradientUnits="userSpaceOnUse" x1="68" y1="16" x2="68" y2="120">
		<stop  offset="0" style="stop-color:#9F2FFF"/>
		<stop  offset="1" style="stop-color:#0BB1D3"/>
	</linearGradient>
	<path class="st9" d="M32,112c0-44.2,35.8-80,80-80c4.4,0,8-3.6,8-8s-3.6-8-8-8c-53,0.1-95.9,43-96,96c0,4.4,3.6,8,8,8
		S32,116.4,32,112z"/>
</g>
</svg>
