<?xml version="1.0" encoding="utf-8"?>
<!-- Generator: Adobe Illustrator 19.2.0, SVG Export Plug-In . SVG Version: 6.00 Build 0)  -->
<svg version="1.1" id="Capa_1" xmlns="http://www.w3.org/2000/svg" xmlns:xlink="http://www.w3.org/1999/xlink" x="0px" y="0px"
	 viewBox="0 0 512 512" style="enable-background:new 0 0 512 512;" xml:space="preserve">
<style type="text/css">
	.st0{fill:#FFAC21;}
</style>
<g>
	<path class="st0" d="M503.2,254c0-7.8-2.8-15.1-7.8-20.9c9.7-5.4,16.4-15.6,16.6-27.3c0.2-8.5-3.1-16.6-9.1-22.8
		c-2.2-2.3-4.8-4.2-7.6-5.8c4.9-5.6,7.9-13,7.9-21.1c0-8.6-3.3-16.6-9.4-22.6c-6-6-14.1-9.4-22.6-9.4h-57.4l22-46.8
		c9.4-19.9,0.8-43.7-19.2-53.1c-5.3-2.5-11-3.8-16.9-3.8c-15.4,0-29.6,9-36.2,23l-11.5,24.4c-0.4,0.8-0.7,1.5-1.1,2.3
		c-1.9,3.7-0.5,8.2,3.2,10.1c3.7,1.9,8.2,0.5,10.1-3.2c0.5-0.9,0.9-1.8,1.4-2.8l11.5-24.4c4.1-8.7,13-14.3,22.6-14.3
		c3.7,0,7.2,0.8,10.6,2.4c12.4,5.8,17.8,20.7,12,33.2l-26.8,57.2c-1.1,2.3-0.9,5,0.4,7.1l0.2,0.4c1.4,2.2,3.8,3.5,6.4,3.5h68.8
		c4.5,0,8.8,1.8,12,5c3.2,3.2,5,7.5,5,12c0,9.4-7.6,17-17,17c-4.1,0-7.5,3.4-7.5,7.5s3.4,7.5,7.5,7.5h8.2c4.7,0,9.3,2,12.7,5.4
		c3.2,3.3,4.9,7.5,4.8,12c-0.2,9.2-7.8,16.6-17,16.6h-8.8c-4.1,0-7.5,3.4-7.5,7.5c0,4.1,3.4,7.5,7.5,7.5c4.5,0,8.8,1.8,12,5
		c3.2,3.2,5,7.5,5,12c0,9.4-7.6,17-17,17h-8.8c-4.1,0-7.5,3.4-7.5,7.5s3.4,7.5,7.5,7.5c4.5,0,8.8,1.8,12,5c1.6,1.6,2.9,3.5,3.7,5.6
		c0,0.1,0,0.1,0.1,0.2c0.8,2,1.2,4.1,1.2,6.2c0,9.4-7.6,17-17,17H329.1c-7.8,0-15.2-2.5-21.4-7c1-2.8,1.5-5.8,1.5-8.9V151.4
		c0,0,0-0.1,0-0.1c0,0,0,0,0,0c-0.1-6.5,1.1-12.8,3.8-18.7c3.8-8.6,10.1-15.7,18.2-20.4c4.6-2.7,8.9-5.8,13-9.4
		c3.1-2.7,3.4-7.5,0.7-10.6c-2.7-3.1-7.5-3.4-10.6-0.7c-3.3,2.9-6.9,5.5-10.6,7.7c-10.8,6.3-19.2,15.8-24.3,27.2
		c-0.5,1.1-0.9,2.1-1.3,3.2c-4.4-3.1-9.7-4.9-15.4-4.9h-37.8c-14.7,0-26.7,12-26.7,26.7v94.1c-22.3-14.8-49-23.4-77.6-23.4
		C63.1,222.1,0,285.1,0,362.6c0,8.2,0.7,16.4,2.1,24.3c0.7,4.1,4.6,6.8,8.7,6.1c4.1-0.7,6.8-4.6,6.1-8.7c-0.8-4.7-1.4-9.4-1.7-14.2
		h20.4c4.1,0,7.5-3.4,7.5-7.5s-3.4-7.5-7.5-7.5H15.2c1-17.4,5.6-33.9,13.1-48.7l7.9,4.6c1.2,0.7,2.5,1,3.7,1c2.6,0,5.1-1.3,6.5-3.8
		c2.1-3.6,0.8-8.2-2.7-10.2l-7.9-4.5c9.4-14.1,21.5-26.3,35.6-35.6l4.5,7.9c1.4,2.4,3.9,3.8,6.5,3.8c1.3,0,2.6-0.3,3.7-1
		c3.6-2.1,4.8-6.7,2.7-10.2l-4.5-7.9c14.8-7.4,31.3-12,48.7-13.1v20.4c0,4.1,3.4,7.5,7.5,7.5s7.5-3.4,7.5-7.5v-20.4
		c17.4,1,33.9,5.6,48.7,13.1l-4.5,7.9c-2.1,3.6-0.8,8.2,2.7,10.2c1.2,0.7,2.5,1,3.7,1c2.6,0,5.1-1.3,6.5-3.8l4.5-7.9
		c14.1,9.4,26.3,21.5,35.6,35.6l-7.9,4.5c-3.6,2.1-4.8,6.7-2.7,10.2c1.4,2.4,3.9,3.8,6.5,3.8c1.3,0,2.6-0.3,3.7-1l7.9-4.5
		c7.4,14.8,12,31.3,13.1,48.7h-20.4c-4.1,0-7.5,3.4-7.5,7.5s3.4,7.5,7.5,7.5h20.4c-1,17.4-5.6,33.9-13.1,48.7l-7.9-4.5
		c-3.6-2.1-8.2-0.8-10.2,2.7c-2.1,3.6-0.8,8.2,2.7,10.2l7.9,4.5c-9.4,14.1-21.5,26.3-35.6,35.6l-4.5-7.9c-2.1-3.6-6.7-4.8-10.2-2.7
		c-3.6,2.1-4.8,6.7-2.7,10.2l4.5,7.9c-14.8,7.4-31.3,12-48.7,13.1v-20.4c0-4.1-3.4-7.5-7.5-7.5s-7.5,3.4-7.5,7.5V488
		c-17.3-1-33.8-5.5-48.7-13L89,467c2.1-3.6,0.8-8.2-2.7-10.2c-3.6-2.1-8.2-0.8-10.2,2.7l-4.6,7.9c-14-9.3-26.2-21.3-35.6-35.7
		l7.9-4.6c3.6-2.1,4.8-6.7,2.7-10.2c-2.1-3.6-6.7-4.8-10.2-2.7l-7.9,4.6c-1.2-2.4-2.3-4.8-3.4-7.3c-1.6-3.8-6-5.6-9.8-4
		c-3.8,1.6-5.6,6-4,9.8c22,52.2,72.9,85.9,129.5,85.9c77.5,0,140.6-63.1,140.6-140.6c0-11-1.3-21.7-3.7-31.9h5.2
		c6.2,0,11.8-2.1,16.3-5.6c8.7,6.4,19.2,9.9,30.2,9.9h133.3c17.6,0,32-14.3,32-32c0-4-0.7-7.8-2.1-11.5c0-0.1-0.1-0.2-0.1-0.3
		c-1.3-3.4-3.2-6.4-5.6-9.2C496.5,276.6,503.2,266.1,503.2,254L503.2,254z M282.7,315.7h-9.6c-8.1-22.8-22-43-39.9-58.7V151.4
		c0-6.4,5.2-11.7,11.7-11.7h37.8c6.4,0,11.7,5.2,11.7,11.7V304C294.3,310.5,289.1,315.7,282.7,315.7z"/>
	<path class="st0" d="M140.6,387.1C140.6,387.1,140.6,387.1,140.6,387.1c13.5,0,24.5-11,24.5-24.5v-43.3c0-13.5-11-24.5-24.5-24.5
		s-24.5,11-24.5,24.5v18.8H78.7c-13.5,0-24.5,11-24.5,24.5c0,13.5,11,24.5,24.5,24.5L140.6,387.1z M131.1,319.3
		c0-5.2,4.2-9.5,9.5-9.5s9.5,4.2,9.5,9.5v43.3c0,5.2-4.2,9.5-9.5,9.5s-9.5-4.2-9.5-9.5V319.3z M69.3,362.6c0-5.2,4.2-9.5,9.5-9.5
		h37.4v9.5c0,3.3,0.7,6.5,1.9,9.5H78.7C73.5,372.1,69.3,367.8,69.3,362.6z"/>
	<path d="M192.1,60.6c3,8.6,11.1,14.2,19.9,14.2c1.8,0,3.6-0.2,5.4-0.7l1.9-0.5h0c10.6-2.8,17.3-13.5,15.2-24.3l-4.2-21.4
		c-1.1-5.7-4.6-10.7-9.5-13.8c-4.9-3.1-11-4-16.6-2.5l-4.8,1.3c-5.6,1.5-10.4,5.3-13.1,10.4c-2.7,5.1-3.2,11.2-1.3,16.7L192.1,60.6z
		 M199.6,30.3c0.8-1.5,2.1-2.5,3.7-3l4.8-1.3c0.5-0.1,1-0.2,1.6-0.2c1.1,0,2.2,0.3,3.2,0.9c1.4,0.9,2.4,2.3,2.7,3.9l4.2,21.4
		c0.6,3.1-1.3,6.1-4.3,7l-1.9,0.5c-3,0.8-6.2-0.9-7.2-3.9L199.2,35C198.6,33.5,198.8,31.8,199.6,30.3z"/>
	<path d="M117.9,92.7l16.5,14.4c4,3.4,8.9,5.1,13.8,5.1c5.4,0,10.8-2.1,14.9-6.1l1.4-1.4c7.8-7.8,8.2-20.4,1-28.7l-14.4-16.5
		c-3.8-4.4-9.3-7-15.1-7.2c-5.8-0.2-11.5,2-15.6,6.1l-3.5,3.5c-4.1,4.1-6.3,9.8-6.1,15.6C110.9,83.3,113.5,88.8,117.9,92.7
		L117.9,92.7z M127.5,72.6L131,69c1.1-1.1,2.6-1.8,4.2-1.8c0.1,0,0.1,0,0.2,0c1.7,0.1,3.2,0.8,4.3,2.1l14.4,16.5
		c2.1,2.4,1.9,6-0.3,8.2l-1.4,1.4c-2.2,2.2-5.8,2.3-8.2,0.3l-16.5-14.4c-1.3-1.1-2-2.6-2.1-4.3C125.7,75.3,126.3,73.8,127.5,72.6
		L127.5,72.6z"/>
	<path d="M86.2,171.9l21.4,4.2c1.3,0.3,2.7,0.4,4,0.4c9.3,0,17.8-6.3,20.3-15.6l0.5-1.9v0c2.8-10.6-3.1-21.7-13.5-25.3l-20.7-7.1
		c-5.5-1.9-11.6-1.4-16.7,1.3c-5.1,2.7-8.9,7.5-10.4,13.1l-1.3,4.8c-1.5,5.6-0.6,11.6,2.5,16.6C75.5,167.3,80.5,170.8,86.2,171.9
		L86.2,171.9z M84.4,149.7l1.3-4.8c0.4-1.6,1.5-3,3-3.7c0.9-0.5,1.8-0.7,2.8-0.7c0.7,0,1.3,0.1,2,0.3l20.7,7.1c3,1,4.7,4.2,3.9,7.2
		l-0.5,1.9c-0.8,3-3.9,4.9-7,4.3l-21.4-4.2c-1.7-0.3-3.1-1.3-3.9-2.7C84.3,153,84,151.3,84.4,149.7L84.4,149.7z"/>
</g>
</svg>
