<?xml version="1.0" encoding="utf-8"?>
<!-- Svg Vector Icons : http://www.onlinewebfonts.com/icon -->
<!DOCTYPE svg PUBLIC "-//W3C//DTD SVG 1.1//EN" "http://www.w3.org/Graphics/SVG/1.1/DTD/svg11.dtd">
<svg version="1.1" xmlns="http://www.w3.org/2000/svg" xmlns:xlink="http://www.w3.org/1999/xlink" x="0px" y="0px" viewBox="0 0 1000 1000" enable-background="new 0 0 1000 1000" xml:space="preserve">
<metadata> Svg Vector Icons : http://www.onlinewebfonts.com/icon </metadata>
<g><g><g><path d="M990,196.2c-36.1,16-74.8,26.8-115.4,31.7c41.5-24.9,73.3-64.3,88.4-111.1c-38.9,23-81.9,39.7-127.7,48.8c-36.7-39.1-88.9-63.5-146.7-63.5c-111,0-201,90-201,201c0,15.7,1.8,31.1,5.2,45.8c-167.1-8.4-315.2-88.4-414.3-210.1c-17.3,29.6-27.2,64.2-27.2,101c0,69.8,35.5,131.3,89.4,167.3c-32.9-1.1-63.9-10.2-91.1-25.2v2.5c0,97.4,69.3,178.6,161.2,197.1c-16.8,4.5-34.6,7-53,7c-13,0-25.5-1.3-37.8-3.7c25.6,79.9,99.8,138,187.8,139.6c-68.8,53.9-155.5,85.9-249.7,85.9c-16.2,0-32.2-1-47.9-2.8C99,864.7,204.6,898,318.2,898c369.8,0,572-306.3,572-572l-0.7-26C928.9,271.9,963.1,236.5,990,196.2z"/></g></g><g></g><g></g><g></g><g></g><g></g><g></g><g></g><g></g><g></g><g></g><g></g><g></g><g></g><g></g><g></g></g>
</svg>