<?xml version="1.0" encoding="utf-8"?>
<!-- Generator: Adobe Illustrator 19.2.0, SVG Export Plug-In . SVG Version: 6.00 Build 0)  -->
<svg version="1.1" id="light" xmlns="http://www.w3.org/2000/svg" xmlns:xlink="http://www.w3.org/1999/xlink" x="0px" y="0px"
	 viewBox="0 0 512 512" style="enable-background:new 0 0 512 512;" xml:space="preserve">
<style type="text/css">
	.st0{fill:#FFFFFF;}
	.st1{fill:#FFAC21;}
</style>
<path class="st0" d="M452.4,512c-2.1,0-4.2-0.6-6-1.8l-73.1-49.7l-73.1,49.7c-3.7,2.5-8.4,2.5-12.1-0.1c-3.6-2.5-5.3-7.1-4.2-11.3
	l22.6-89.3l-68.1-58.2c-3.3-2.8-4.6-7.4-3.2-11.5c1.4-4.1,5.1-7,9.5-7.2l87.1-4.9l31.5-85.9c3.1-8.4,17-8.4,20,0l31.5,85.9l87.1,4.9
	c4.4,0.2,8.1,3.1,9.5,7.2c1.4,4.1,0.1,8.7-3.2,11.5l-68.1,58.2l22.6,89.3c1.1,4.3-0.6,8.8-4.2,11.3C456.7,511.4,454.6,512,452.4,512
	L452.4,512z M373.3,436.8c2.1,0,4.2,0.6,6,1.8l55.9,38l-17.3-68.5c-1-3.9,0.3-8.1,3.4-10.7l52.9-45.2l-67.6-3.8
	c-4.2-0.2-7.9-3-9.4-7l-23.9-65.1l-23.9,65.1c-1.5,4-5.2,6.7-9.4,7l-67.6,3.8l52.9,45.2c3.1,2.6,4.4,6.8,3.4,10.7l-17.3,68.5
	l55.9-38C369.2,437.4,371.2,436.8,373.3,436.8L373.3,436.8z"/>
<path class="st1" d="M203.5,357.3c-2.7,0-5.5-1-7.6-3.1l-87.7-87.7c-4-4-4.2-10.4-0.4-14.7l102.8-115.2c0.6-0.9,1.5-1.8,2.5-2.6
	C286.2,50.3,399.1-1.8,501.6,0c5.7,0.1,10.3,4.7,10.4,10.4c1.7,72.2-24.9,152.3-72.8,219.8c-3.4,4.8-10.1,5.9-14.9,2.5
	c-4.8-3.4-5.9-10.1-2.5-14.9c43-60.5,67.8-131.6,68.9-196.5c-92.6,1.6-196.7,52-262.3,127.8c-0.4,0.5-1,1-1.5,1.4l-96.4,108.1
	l80.5,80.5c4.2,4.2,4.2,10.9,0,15.1C209,356.3,206.3,357.3,203.5,357.3L203.5,357.3z"/>
<path class="st1" d="M139.5,243.5c-0.5,0-1,0-1.5-0.1L35.9,228.7c-4-0.6-7.3-3.3-8.6-7.2c-1.3-3.8-0.3-8.1,2.6-10.9
	c51.4-51.4,118.8-79.3,190.5-79.3c5.9,0,10.7,4.8,10.7,10.7s-4.8,10.7-10.7,10.7c-59,0-114.8,20.5-159.3,58.1l80,11.5
	c5.8,0.9,9.9,6.2,9,12.1C149.3,239.6,144.7,243.5,139.5,243.5L139.5,243.5z"/>
<path class="st1" d="M365.5,199.8c-14.3,0-27.6-5.5-37.7-15.6c-20.8-20.8-20.8-54.6,0-75.4c20.1-20.1,55.2-20.2,75.4,0
	c20.8,20.8,20.8,54.6,0,75.4C393.1,194.3,379.7,199.8,365.5,199.8z M365.5,114.5c-8.6,0-16.6,3.3-22.6,9.4
	c-12.5,12.5-12.5,32.8,0,45.3c12.1,12.1,33.2,12.1,45.2,0c12.5-12.5,12.5-32.8,0-45.3C382.1,117.8,374,114.5,365.5,114.5
	L365.5,114.5z M395.7,176.7h0.2H395.7z"/>
<path class="st1" d="M10.7,512c-2.8,0-5.5-1.1-7.6-3.1c-2.8-2.8-3.8-6.8-2.7-10.6c3.5-11.7,34.8-114.8,57.6-137.6
	c25.7-25.7,67.5-25.7,93.2,0s25.7,67.5,0,93.2c-22.8,22.8-125.9,54.2-137.6,57.7C12.7,511.9,11.7,512,10.7,512z M104.7,362.7
	c-11.4,0-22.8,4.4-31.6,13c-12.3,12.3-32.8,67.4-46.3,109.4c42-13.5,97.1-34,109.4-46.3c17.4-17.4,17.4-45.7,0-63.1
	C127.6,367,116.1,362.7,104.7,362.7L104.7,362.7z"/>
</svg>
