<?xml version="1.0" encoding="utf-8"?>
<!-- Generator: Adobe Illustrator 19.2.0, SVG Export Plug-In . SVG Version: 6.00 Build 0)  -->
<svg version="1.1" id="Capa_1" xmlns="http://www.w3.org/2000/svg" xmlns:xlink="http://www.w3.org/1999/xlink" x="0px" y="0px"
	 viewBox="0 0 512 512" style="enable-background:new 0 0 512 512;" xml:space="preserve">
<style type="text/css">
	.st0{fill:#C44C0E;}
</style>
<g>
	<g>
		<path class="st0" d="M374,155.9c-76.1,0-138,61.9-138,138c0,18.7,3.8,37.1,11,54H144.2v-52c0-5.5-4.5-10-10-10s-10,4.5-10,10v62
			c0,5.5,4.5,10,10,10h123.4c2.8,4.5,5.9,8.8,9.3,12.9c0.2,0.2,0.3,0.5,0.5,0.7L353.5,492h-46.9c-5.5,0-10,4.5-10,10s4.5,10,10,10
			h135c5.5,0,10-4.5,10-10s-4.5-10-10-10h-47.2l86.7-111.1c0,0,0.1-0.1,0.1-0.1c19.8-24.5,30.7-55.3,30.7-86.8
			C512,217.9,450.1,155.9,374,155.9z M465.5,368.4c-0.1,0.2-0.2,0.3-0.4,0.5L374,485.7l-90.2-115.6c-0.2-0.4-0.5-0.8-0.8-1.1
			c-17.4-21.1-27-47.7-27-75.1c0-65.1,52.9-118,118-118s118,52.9,118,118C492,321,482.6,347.5,465.5,368.4z"/>
	</g>
</g>
<g>
	<g>
		<path class="st0" d="M452.1,270.8c-1.7-5.3-7.3-8.1-12.6-6.5c-5.3,1.7-8.1,7.3-6.5,12.6c7.2,22.3,1.4,46.4-15.2,62.9
			c-24.2,24.2-63.5,24.2-87.7,0C318.4,328.1,312,312.6,312,296s6.4-32.1,18.2-43.8c15.8-15.8,39-21.9,60.6-15.9
			c5.3,1.5,10.8-1.6,12.3-6.9c1.5-5.3-1.6-10.8-6.9-12.3c-28.5-7.9-59.2,0.1-80.1,21c-15.5,15.5-24,36.1-24,58s8.5,42.5,24,58
			c16,16,37,24,58,24s42-8,58-24C453.8,332.1,461.5,300.3,452.1,270.8z"/>
	</g>
</g>
<g>
	<g>
		<path class="st0" d="M432.1,238.1L432.1,238.1c-4-4-10.3-4-14.2-0.1c-3.9,3.9-3.9,10.2,0,14.1l0.1,0.1c2,2,4.5,2.9,7.1,2.9
			s5.1-1,7.1-2.9C436,248.3,436,242,432.1,238.1z"/>
	</g>
</g>
<g>
	<g>
		<path class="st0" d="M234.3,420H10c-5.5,0-10,4.5-10,10s4.5,10,10,10h214.3v62c0,5.5,4.5,10,10,10s10-4.5,10-10v-72
			C244.3,424.5,239.9,420,234.3,420z"/>
	</g>
</g>
<g>
	<g>
		<path class="st0" d="M182.5,0c-5.5,0-10,4.5-10,10v72H10C4.5,82,0,86.5,0,92s4.5,10,10,10h172.5c5.5,0,10-4.5,10-10V10
			C192.5,4.5,188,0,182.5,0z"/>
	</g>
</g>
<g>
	<g>
		<path class="st0" d="M85.9,154H10c-5.5,0-10,4.5-10,10s4.5,10,10,10h65.9v174H10c-5.5,0-10,4.5-10,10s4.5,10,10,10h75.9
			c5.5,0,10-4.5,10-10V164C95.9,158.5,91.4,154,85.9,154z"/>
	</g>
</g>
<g>
	<g>
		<path class="st0" d="M141.2,253.9c-1.9-1.9-4.4-2.9-7.1-2.9c-2.6,0-5.2,1.1-7.1,2.9c-1.9,1.9-2.9,4.4-2.9,7.1
			c0,2.6,1.1,5.2,2.9,7.1c1.9,1.9,4.4,2.9,7.1,2.9c2.6,0,5.2-1.1,7.1-2.9c1.9-1.9,2.9-4.4,2.9-7.1S143.1,255.8,141.2,253.9z"/>
	</g>
</g>
<g>
	<g>
		<path class="st0" d="M256,154H134.2c-5.5,0-10,4.5-10,10v55.5c0,5.5,4.5,10,10,10s10-4.5,10-10V174H256c5.5,0,10-4.5,10-10
			S261.5,154,256,154z"/>
	</g>
</g>
<g>
	<g>
		<path class="st0" d="M400,0c-5.5,0-10,4.5-10,10v72l-149.2,0V10c0-5.5-4.5-10-10-10s-10,4.5-10,10v82c0,2.7,1.1,5.2,2.9,7.1
			s4.4,2.9,7.1,2.9l169.2,0c5.5,0,10-4.5,10-10V10C410,4.5,405.5,0,400,0z"/>
	</g>
</g>
<g>
	<g>
		<path class="st0" d="M502,82h-44V10c0-5.5-4.5-10-10-10s-10,4.5-10,10v82c0,5.5,4.5,10,10,10h54c5.5,0,10-4.5,10-10
			S507.5,82,502,82z"/>
	</g>
</g>
<g>
	<g>
		<path class="st0" d="M502,154h-31.6c-5.5,0-10,4.5-10,10s4.5,10,10,10H502c5.5,0,10-4.5,10-10S507.5,154,502,154z"/>
	</g>
</g>
</svg>
