<?xml version="1.0" encoding="utf-8"?>
<!-- Generator: Adobe Illustrator 19.2.0, SVG Export Plug-In . SVG Version: 6.00 Build 0)  -->
<svg version="1.1" id="Layer_1" xmlns="http://www.w3.org/2000/svg" xmlns:xlink="http://www.w3.org/1999/xlink" x="0px" y="0px"
	 viewBox="0 0 512 512" style="enable-background:new 0 0 512 512;" xml:space="preserve">
<style type="text/css">
	.st0{fill:#C44C0E;}
</style>
<g>
	<g>
		<path class="st0" d="M500.5,423.5h-25c1.9-3.8,3-8,3-12.5l0-203.5c0-4.1-3.4-7.5-7.5-7.5c-4.1,0-7.5,3.4-7.5,7.5l0,203.5
			c0,6.9-5.6,12.5-12.5,12.5l-390,0c-6.9,0-12.5-5.6-12.5-12.5l0-260c0-6.9,5.6-12.5,12.5-12.5l199,0c-2.6,4.6-3,10.1-0.9,15
			l-26.6,0c0,0,0,0,0,0h-13.6c0,0,0,0-0.1,0l-147.8,0c-4.1,0-7.5,3.4-7.5,7.5l0,158.4c0,4.1,3.4,7.5,7.5,7.5c4.1,0,7.5-3.4,7.5-7.5
			l0-150.9l123.2,0c-1,4.1-2.2,9.1-2.7,12.9c-0.1,0.6-0.5,1.2-1.1,1.5l-12.5,7.2c-0.6,0.3-1.3,0.4-1.9,0.2
			c-4.3-1.7-10.3-3.5-14.7-4.7c-7.6-2.1-15.6,1.2-19.5,8l-6.8,11.7c-3.9,6.8-2.8,15.4,2.9,20.9c3.2,3.2,7.8,7.5,11.4,10.3
			c0.5,0.4,0.8,1,0.8,1.7v14.4c0,0.7-0.3,1.3-0.8,1.7c-3.6,2.8-8.2,7.2-11.4,10.3c-5.6,5.5-6.8,14.1-2.9,20.9l6.8,11.7
			c3.9,6.8,11.9,10.1,19.5,8c4.4-1.2,10.4-3,14.7-4.7c0.6-0.2,1.3-0.2,1.9,0.2l12.5,7.2c0.6,0.3,1,0.9,1.1,1.5
			c0.6,4.5,2.1,10.7,3.2,15c2,7.6,8.8,12.9,16.7,12.9h13.6c7.8,0,14.7-5.3,16.7-12.9c1.1-4.4,2.6-10.5,3.2-15
			c0.1-0.6,0.5-1.2,1.1-1.5l12.5-7.2c0.6-0.3,1.3-0.4,1.9-0.2c4.3,1.7,10.3,3.5,14.7,4.7c7.6,2.1,15.6-1.2,19.5-8l6.8-11.7
			c3.9-6.8,2.8-15.4-2.9-20.9c-3.2-3.2-7.8-7.5-11.4-10.3c-0.5-0.4-0.8-1-0.8-1.7v-14.4c0-0.7,0.3-1.3,0.8-1.7
			c3.6-2.8,8.2-7.2,11.4-10.3c5.6-5.5,6.8-14.1,2.9-20.9l-6.8-11.7c-3.9-6.8-11.9-10.1-19.5-8c-4.4,1.2-10.4,3-14.7,4.7
			c-0.6,0.2-1.3,0.2-1.9-0.2l-12.5-7.2c-0.6-0.3-1-0.9-1.1-1.5c-0.5-3.9-1.7-8.9-2.7-12.9l18,0c4.1,6,11.6,8.7,18.7,6.7
			c4.4-1.2,10.4-3,14.7-4.7c0.6-0.2,1.3-0.2,1.9,0.2l12.5,7.2c0.6,0.3,1,0.9,1.1,1.5c0.6,4.5,2.1,10.7,3.2,15
			c2,7.6,8.8,12.9,16.7,12.9h13.6c7.8,0,14.7-5.3,16.7-12.9c1.1-4.4,2.6-10.5,3.2-15c0.1-0.6,0.5-1.2,1.1-1.5l12.5-7.2
			c0.6-0.3,1.3-0.4,1.9-0.2c4.3,1.7,10.3,3.5,14.7,4.7c7.1,2,14.6-0.8,18.7-6.7h14.6l0,225l-355,0l0-41.7c0-4.1-3.4-7.5-7.5-7.5
			c-4.1,0-7.5,3.4-7.5,7.5l0,49.2c0,4.1,3.4,7.5,7.5,7.5l370,0c2,0,3.9-0.8,5.3-2.2c1.4-1.4,2.2-3.3,2.2-5.3l0-240
			c0-4.1-3.4-7.5-7.5-7.5h-13.5c2-4.9,1.6-10.4-0.9-15H451c6.9,0,12.5,5.6,12.5,12.5l0,24.7c0,4.1,3.4,7.5,7.5,7.5
			c4.1,0,7.5-3.4,7.5-7.5l0-24.7c0-15.2-12.3-27.5-27.5-27.5h-39.5c-0.1-0.3-0.2-0.5-0.2-0.8v-14.4c0-0.7,0.3-1.3,0.8-1.7
			c3.6-2.8,8.2-7.2,11.4-10.3c5.6-5.5,6.8-14.1,2.9-20.9l-6.8-11.7c-3.9-6.8-11.9-10.1-19.5-8c-4.4,1.2-10.5,3-14.7,4.7
			c-0.6,0.2-1.3,0.2-1.9-0.2L371,53c-0.6-0.3-1-0.9-1.1-1.5c-0.6-4.5-2.1-10.7-3.2-15c-2-7.6-8.8-12.9-16.7-12.9h-13.6
			c-7.8,0-14.7,5.3-16.7,12.9c-1.1,4.3-2.6,10.5-3.2,15c-0.1,0.6-0.5,1.2-1.1,1.5L303,60.2c-0.6,0.3-1.3,0.4-1.9,0.2
			c-4.2-1.7-10.3-3.5-14.7-4.7c-7.6-2.1-15.6,1.2-19.5,8l-6.8,11.7c-3.9,6.8-2.8,15.4,2.9,20.9c3.2,3.2,7.8,7.5,11.4,10.3
			c0.5,0.4,0.8,1,0.8,1.7v14.4c0,0.3-0.1,0.6-0.2,0.8l-214,0c-15.2,0-27.5,12.3-27.5,27.5l0,260c0,4.5,1.1,8.7,3,12.5h-25
			C5.2,423.5,0,428.7,0,435v20c0,18.5,15,33.5,33.5,33.5h350.4c4.1,0,7.5-3.4,7.5-7.5s-3.4-7.5-7.5-7.5H33.5
			c-10.2,0-18.5-8.3-18.5-18.5v-16.5h187.5v4.5c0,10.8,8.7,19.5,19.5,19.5h68c10.8,0,19.5-8.7,19.5-19.5v-4.5H497V455
			c0,10.2-8.3,18.5-18.5,18.5h-62.3c-4.1,0-7.5,3.4-7.5,7.5s3.4,7.5,7.5,7.5h62.3c18.5,0,33.5-15,33.5-33.5v-20
			C512,428.7,506.8,423.5,500.5,423.5L500.5,423.5z M234.6,170.2c1.5,5.6,2.5,10.4,2.9,13.4c0.7,5.3,3.8,9.8,8.4,12.5l12.5,7.2
			c4.6,2.7,10.1,3,15,1.1c2.8-1.1,7.5-2.6,13.1-4.2c1-0.3,2,0.1,2.5,1l6.8,11.7c0.5,0.9,0.3,2-0.4,2.7c-4.2,4.1-7.8,7.3-10.2,9.2
			c-4.2,3.3-6.6,8.2-6.6,13.5v14.4c0,5.3,2.4,10.3,6.6,13.5c2.4,1.9,6,5.1,10.2,9.2c0.7,0.7,0.9,1.8,0.4,2.7l-6.8,11.7
			c-0.5,0.9-1.5,1.3-2.5,1c-5.6-1.6-10.3-3-13.1-4.2c-4.9-2-10.4-1.6-15,1.1l-12.5,7.2c-4.6,2.7-7.7,7.2-8.4,12.5v0
			c-0.4,3-1.5,7.7-2.9,13.4c-0.3,1-1.1,1.7-2.1,1.7h-13.6c-1,0-1.9-0.7-2.1-1.7c-1.5-5.6-2.5-10.4-2.9-13.4
			c-0.7-5.2-3.8-9.8-8.4-12.5l-12.5-7.2c-2.7-1.5-5.6-2.3-8.6-2.3c-2.2,0-4.3,0.4-6.4,1.2c-2.8,1.1-7.5,2.6-13.1,4.2
			c-1,0.3-2-0.1-2.5-1l-6.8-11.7c-0.5-0.9-0.3-2,0.4-2.7c4.2-4.1,7.8-7.3,10.2-9.2c4.2-3.3,6.6-8.2,6.6-13.5v-14.4
			c0-5.3-2.4-10.3-6.6-13.5c-2.4-1.9-6-5.1-10.2-9.2c-0.7-0.7-0.9-1.8-0.4-2.7l6.8-11.7c0.5-0.9,1.5-1.3,2.5-1
			c5.6,1.6,10.3,3.1,13.1,4.2c4.9,2,10.4,1.6,15-1.1l12.5-7.2c4.6-2.7,7.7-7.2,8.4-12.5c0.4-3,1.5-7.7,2.9-13.4
			c0.3-1,1.1-1.7,2.1-1.7l13.6,0C233.5,168.5,234.3,169.2,234.6,170.2L234.6,170.2z M273.4,85.5c-0.7-0.7-0.9-1.8-0.4-2.7l6.8-11.7
			c0.5-0.9,1.5-1.3,2.5-1c5.6,1.6,10.3,3.1,13.1,4.2c4.9,2,10.4,1.6,15-1.1L323,66c4.6-2.7,7.7-7.2,8.4-12.5c0.4-3,1.5-7.7,2.9-13.4
			c0.3-1,1.1-1.7,2.1-1.7h13.6c1,0,1.9,0.7,2.1,1.7c1.5,5.6,2.5,10.4,2.9,13.4c0.7,5.3,3.8,9.8,8.4,12.5l12.5,7.2
			c4.6,2.7,10.1,3,15,1.1c2.8-1.1,7.5-2.6,13.1-4.2c1-0.3,2,0.1,2.5,1l6.8,11.7c0.5,0.9,0.3,2-0.4,2.7c-4.2,4.1-7.8,7.3-10.2,9.2
			c-4.2,3.3-6.6,8.2-6.6,13.5v14.4c0,5.3,2.4,10.3,6.6,13.5c2.4,1.9,6,5.1,10.2,9.2c0.7,0.7,0.9,1.8,0.4,2.7l-6.8,11.7
			c-0.5,0.9-1.5,1.3-2.5,1c-5.6-1.6-10.3-3.1-13.1-4.2c-4.9-2-10.4-1.6-15,1.1l-12.5,7.2c-4.6,2.7-7.7,7.2-8.4,12.5v0
			c-0.4,3-1.5,7.7-2.9,13.4c-0.3,1-1.1,1.7-2.1,1.7h-13.6c-1,0-1.9-0.7-2.1-1.7c-1.5-5.6-2.5-10.4-2.9-13.4
			c-0.7-5.2-3.8-9.8-8.4-12.5l-12.5-7.2c-2.7-1.5-5.6-2.3-8.6-2.3c-2.2,0-4.3,0.4-6.4,1.2c-2.8,1.1-7.5,2.6-13.1,4.2
			c-1,0.3-2-0.1-2.5-1l-1.3-2.3c0-0.1-0.1-0.2-0.1-0.2l-5.3-9.2c-0.5-0.9-0.3-2,0.4-2.7c4.2-4.1,7.8-7.3,10.2-9.2
			c4.2-3.3,6.6-8.2,6.6-13.5v-14.4c0-5.3-2.4-10.3-6.6-13.5C281.2,92.8,277.6,89.6,273.4,85.5L273.4,85.5z M294.5,443
			c0,2.5-2,4.5-4.5,4.5h-68c-2.5,0-4.5-2-4.5-4.5v-4.5h77V443z"/>
		<path class="st0" d="M343.3,156.3c22.6,0,40.9-18.3,40.9-40.8c0-22.5-18.4-40.8-40.9-40.8s-40.9,18.3-40.9,40.8
			C302.3,138,320.7,156.3,343.3,156.3z M331.6,138.5H355c-3.5,1.8-7.5,2.8-11.7,2.8S335.1,140.3,331.6,138.5L331.6,138.5z
			 M343.3,89.6c14.3,0,25.9,11.6,25.9,25.8c0,2.8-0.5,5.5-1.3,8.1h-49.3c-0.8-2.5-1.3-5.2-1.3-8.1C317.3,101.2,329,89.6,343.3,89.6
			L343.3,89.6z"/>
		<path class="st0" d="M184.7,245.4c0,22.5,18.4,40.8,40.9,40.8s40.9-18.3,40.9-40.8c0-22.5-18.4-40.8-40.9-40.8
			S184.7,222.9,184.7,245.4L184.7,245.4z M251.6,245.4c0,14.2-11.6,25.8-25.9,25.8s-25.9-11.6-25.9-25.8s11.6-25.8,25.9-25.8
			S251.6,231.2,251.6,245.4L251.6,245.4z"/>
	</g>
</g>
</svg>
