<?xml version="1.0" encoding="utf-8"?>
<!-- Generator: Adobe Illustrator 19.2.0, SVG Export Plug-In . SVG Version: 6.00 Build 0)  -->
<svg version="1.1" id="Слой_1" xmlns="http://www.w3.org/2000/svg" xmlns:xlink="http://www.w3.org/1999/xlink" x="0px" y="0px"
	 viewBox="0 0 512 512" style="enable-background:new 0 0 512 512;" xml:space="preserve">
<style type="text/css">
	.st0{fill:#C44C0E;}
</style>
<g id="Page-1">
	<g id="_x30_37---RAM">
		<path id="Shape" class="st0" d="M135.5,494.5c-4.4,0-8.6-1.7-11.7-4.8L60,425.8c-5.3-5.4-6.3-13.8-2.4-20.3
			c3.5-6.2,2.5-14.1-2.6-19.2c-5.1-5.1-12.9-6.1-19.2-2.6c-6.5,3.9-14.9,2.9-20.3-2.4L9,374.9c-6.4-6.5-6.4-16.9,0-23.4L347.7,12.9
			c6.5-6.4,16.9-6.4,23.4,0l6.5,6.5c5.3,5.4,6.3,13.8,2.4,20.3c-3.5,6.2-2.4,14.1,2.6,19.1s12.9,6.1,19.1,2.6
			c6.5-3.9,14.9-2.9,20.3,2.4l63.9,63.9c6.4,6.5,6.4,16.9,0,23.4L147.2,489.7C144.1,492.8,139.9,494.6,135.5,494.5L135.5,494.5z
			 M43.9,365c8.6,0,16.9,3.4,23,9.5c10.4,10.4,12.6,26.5,5.3,39.3l63.6,64L474,139.1l-63.9-63.5c-12.7,7.5-29,5.5-39.4-5
			c-10.4-10.4-12.6-26.5-5.3-39.3l-6.1-6.6L20.9,363.4l6.5,6.1C32.4,366.6,38.1,365,43.9,365z"/>
		<path id="Shape_1_" class="st0" d="M175.7,511.8c-4.4,0-8.6-1.7-11.7-4.8l-23-23c-2.2-2.1-3.1-5.2-2.3-8.2c0.8-2.9,3.1-5.2,6-6
			c2.9-0.8,6.1,0.1,8.2,2.3l23,23l74.2-74.6l-23-22.6c-3.2-3.3-3.2-8.5,0.1-11.8c3.2-3.2,8.5-3.3,11.8-0.1l23,23
			c6.4,6.5,6.4,16.9,0,23.4l-74.6,74.6C184.3,510,180.1,511.8,175.7,511.8L175.7,511.8z"/>
		<path id="Shape_2_" class="st0" d="M302,385.5c-4.4,0-8.6-1.7-11.7-4.8l-23-23c-3.2-3.3-3.1-8.5,0.1-11.8
			c3.2-3.2,8.5-3.3,11.8-0.1l23,23l189-189.4l-23-22.6c-3.2-3.3-3.2-8.5,0.1-11.8s8.5-3.3,11.8-0.1l23,23c6.4,6.5,6.4,16.9,0,23.4
			L313.7,380.6C310.6,383.7,306.4,385.5,302,385.5L302,385.5z"/>
		<path id="Shape_3_" class="st0" d="M204.4,486.4c-2.2,0-4.4-0.9-5.9-2.5l-28.7-28.7c-3.2-3.3-3.2-8.5,0.1-11.8s8.5-3.3,11.8-0.1
			l28.7,28.7c2.4,2.4,3.1,6,1.8,9.1C210.9,484.4,207.8,486.4,204.4,486.4L204.4,486.4z"/>
		<path id="Shape_4_" class="st0" d="M233.1,457.7c-2.2,0-4.4-0.9-5.9-2.5l-28.7-28.7c-3.3-3.3-3.3-8.6,0-11.9s8.6-3.3,11.9,0
			l28.7,28.7c2.4,2.4,3.1,6,1.8,9.1C239.6,455.7,236.5,457.7,233.1,457.7L233.1,457.7z"/>
		<path id="Shape_5_" class="st0" d="M330.7,360.1c-2.2,0-4.4-0.9-5.9-2.5L296.1,329c-3.2-3.3-3.1-8.5,0.1-11.8
			c3.2-3.2,8.5-3.3,11.8-0.1l28.7,28.7c2.4,2.4,3.1,6,1.8,9.1S334.1,360.1,330.7,360.1z"/>
		<path id="Shape_6_" class="st0" d="M359.4,331.4c-2.2,0-4.4-0.9-5.9-2.5l-28.7-28.7c-3.2-3.3-3.2-8.5,0.1-11.8
			c3.2-3.2,8.5-3.3,11.8-0.1l28.7,28.7c2.4,2.4,3.1,6,1.8,9.1C365.9,329.4,362.8,331.4,359.4,331.4L359.4,331.4z"/>
		<path id="Shape_7_" class="st0" d="M388.1,302.7c-2.2,0-4.4-0.9-5.9-2.5l-28.7-28.7c-3.2-3.3-3.2-8.5,0.1-11.8
			c3.2-3.2,8.5-3.3,11.8-0.1l28.7,28.7c2.4,2.4,3.1,6,1.8,9.1C394.6,300.7,391.5,302.7,388.1,302.7L388.1,302.7z"/>
		<path id="Shape_8_" class="st0" d="M416.8,274c-2.2,0-4.4-0.9-5.9-2.5l-28.7-28.7c-2.2-2.1-3-5.2-2.3-8.2c0.8-2.9,3.1-5.2,6-6
			c2.9-0.8,6,0.1,8.2,2.3l28.7,28.7c2.4,2.4,3.1,6,1.8,9.1C423.3,272,420.2,274,416.8,274L416.8,274z"/>
		<path id="Shape_9_" class="st0" d="M445.5,245.3c-2.2,0-4.4-0.9-5.9-2.5l-28.7-28.7c-2.2-2.1-3.1-5.2-2.3-8.2c0.8-2.9,3.1-5.2,6-6
			c2.9-0.8,6.1,0.1,8.2,2.3l28.7,28.7c2.4,2.4,3.1,6,1.8,9.1C452,243.3,448.9,245.3,445.5,245.3L445.5,245.3z"/>
		<path id="Shape_10_" class="st0" d="M474.2,216.6c-2.2,0-4.4-0.9-5.9-2.5l-28.7-28.7c-3.2-3.3-3.2-8.5,0.1-11.8
			c3.2-3.2,8.5-3.3,11.8-0.1l28.7,28.7c2.4,2.4,3.1,6,1.8,9.1C480.7,214.6,477.6,216.6,474.2,216.6L474.2,216.6z"/>
		<path id="Shape_11_" class="st0" d="M147,425.5c-4.5,0-8.7-1.8-11.9-4.9l-57-57c-6.5-6.6-6.5-17.2,0-23.7l39.8-39.8
			c6.6-6.5,17.2-6.5,23.7,0l57,57c6.5,6.6,6.5,17.2,0,23.7l-39.8,39.8C155.7,423.8,151.4,425.6,147,425.5L147,425.5z M129.8,312
			L90,351.7l57,57l39.8-39.8L129.8,312z"/>
		<path id="Shape_12_" class="st0" d="M221.6,350.9c-4.5,0-8.7-1.8-11.9-4.9l-57-57c-6.5-6.6-6.5-17.2,0-23.7l39.8-39.8
			c6.6-6.5,17.2-6.5,23.7,0l57,57c3.1,3.1,4.9,7.4,4.9,11.9c0,4.5-1.8,8.7-4.9,11.9L233.5,346C230.3,349.2,226.1,350.9,221.6,350.9z
			 M204.4,237.3l-39.8,39.8l57,57l39.8-39.8v0l0,0L204.4,237.3z"/>
		<path id="Shape_13_" class="st0" d="M296.3,276.3c-4.5,0-8.7-1.8-11.9-4.9l-57-57c-6.5-6.6-6.5-17.2,0-23.7l39.8-39.8
			c3.1-3.2,7.4-4.9,11.9-4.9h0c4.5,0,8.7,1.8,11.9,4.9l57,57c3.1,3.1,4.9,7.4,4.9,11.9c0,4.5-1.8,8.7-4.9,11.9l-39.8,39.8
			C305,274.5,300.7,276.3,296.3,276.3L296.3,276.3z M279,162.7l-39.8,39.8l57,57l39.8-39.8L279,162.7z"/>
		<path id="Shape_14_" class="st0" d="M370.9,201.7c-4.4,0-8.7-1.8-11.9-4.9l-57-57c-6.5-6.6-6.5-17.2,0-23.7l39.8-39.8
			c3.1-3.2,7.4-4.9,11.9-4.9h0c4.5,0,8.7,1.8,11.9,4.9l57,57c3.1,3.1,4.9,7.4,4.9,11.9c0,4.5-1.8,8.7-4.9,11.9l-39.8,39.8
			C379.6,199.9,375.3,201.7,370.9,201.7L370.9,201.7z M353.7,88.1l-39.8,39.8l57,57l39.8-39.8l0,0L353.7,88.1z"/>
	</g>
</g>
</svg>
