<?xml version="1.0" encoding="utf-8"?>
<!-- Generator: Adobe Illustrator 19.2.0, SVG Export Plug-In . SVG Version: 6.00 Build 0)  -->
<svg version="1.1" id="Layer_1" xmlns="http://www.w3.org/2000/svg" xmlns:xlink="http://www.w3.org/1999/xlink" x="0px" y="0px"
	 viewBox="0 0 512 512" style="enable-background:new 0 0 512 512;" xml:space="preserve">
<style type="text/css">
	.st0{fill:#FFFFFF;}
</style>
<g>
	<path class="st0" d="M504,105.4c-6.9-8.5-17.1-13.4-28-13.4H85.7l-3.5-25c-2.5-17.7-17.8-31-35.7-31H16C7.2,36,0,43.2,0,52
		s7.2,16,16,16h30.6c2,0,3.7,1.5,4,3.4l5.4,38.6c0,0,0,0.1,0,0.1l31.3,224c0,0,0,0,0,0.1l6.5,46.7c2.5,17.7,17.8,31,35.7,31h17.3
		c-1.8,5-2.8,10.4-2.8,16c0,26.5,21.5,48,48,48s48-21.5,48-48c0-5.6-1-11-2.8-16h85.5c-1.8,5-2.8,10.4-2.8,16c0,26.5,21.5,48,48,48
		s48-21.5,48-48c0-5.6-1-11-2.8-16H448c8.8,0,16-7.2,16-16s-7.2-16-16-16H129.4c-2,0-3.7-1.5-4-3.4l-4-28.6h315.1
		c16.9,0,31.7-12,35.2-28.5l39.4-184C513.5,124.9,510.9,113.9,504,105.4L504,105.4z M479.7,143.1l-32,160
		c-1.5,7.6-8.2,12.9-15.7,12.9c-1,0-2.1-0.1-3.2-0.3c-8.7-1.7-14.3-10.2-12.6-18.8l32-160c1.7-8.7,10.2-14.3,18.8-12.6
		C475.8,126,481.4,134.5,479.7,143.1z"/>
</g>
</svg>
